<svg xmlns="http://www.w3.org/2000/svg" width="120.018" height="83.868" viewBox="0 0 120.018 83.868">
  <path id="Path_140" data-name="Path 140" d="M68.685-108.45q2.651-6.989,5.422-14.1t5.182-13.857q4.579-12.05,9.278-25.426t7.832-24.22q11.809-.482,20.485-1.446t20.485-2.41q-4.338,12.05-9.761,25.667t-10.483,25.666L105.558-110.86Zm-51.333,2.41,8.435-31.089q2.41-8.917,3.615-13.617t2.048-7.592q.844-2.892,1.687-6.025t2.169-8.435q1.326-5.3,3.735-15.183a11.688,11.688,0,0,0,2.29.241H47q4.579,0,8.8-.12t8.074-.362q4.1-.241,8.435-.361t8.917-.121q-4.338,9.881-9.64,23.257t-9.64,25.666q-2.651,6.989-5.3,14.34t-5.3,14.821Z" transform="translate(-17.352 189.908)" fill="#f8ed11"/>
</svg>
