<svg xmlns="http://www.w3.org/2000/svg" width="95.876" height="95.812" viewBox="0 0 95.876 95.812">
  <g id="Group_145484" data-name="Group 145484" transform="translate(-583 -1598.002)">
    <path id="Path_44773" data-name="Path 44773" d="M95.812,175.51c-3.538,10.055-10.754,17-19.272,22.864-2.532,1.742-5.12,3.343-8.229,3.8a24.292,24.292,0,0,1-3.439.273c-8.228.023-16.455-.014-24.683.027a9.559,9.559,0,0,0-7.153,3.276c.615.576,1.2,1.075,1.729,1.631a1.8,1.8,0,0,1,.011,2.74q-5.241,5.27-10.534,10.488a5.114,5.114,0,0,1-.85.563h-.936a13.531,13.531,0,0,1-1.311-1.026q-9.87-9.823-19.717-19.67c-.5-.5-.953-1.047-1.428-1.573v-1.123a17.027,17.027,0,0,1,1.11-1.366q4.779-4.813,9.586-9.6c1.3-1.3,2.035-1.321,3.53-.051l.549-.824a33.97,33.97,0,0,1,11.511-11.021,16.9,16.9,0,0,1,17.052-.273,13.681,13.681,0,0,0,6.867,1.649c5.081-.117,10.167.029,15.249-.058a8.016,8.016,0,0,1,7.66,4.069c.281-.138.552-.26.813-.4a17.484,17.484,0,0,0,7.215-7.377c.294-.549.573-1.107.876-1.651a7.327,7.327,0,0,1,7.451-3.774,7.42,7.42,0,0,1,6.159,5.652,4.822,4.822,0,0,0,.185.512ZM30.347,203.046a3.2,3.2,0,0,0,.331-.24,13.328,13.328,0,0,1,9.9-4.093q12.3.013,24.608,0a12.7,12.7,0,0,0,6.931-1.924A62.376,62.376,0,0,0,83.965,187.4a36.439,36.439,0,0,0,7.753-11.584,3.576,3.576,0,1,0-6.554-2.861,22.631,22.631,0,0,1-10.719,10.935,1.288,1.288,0,0,0-.563.829,7.534,7.534,0,0,1-7.888,6.51q-8.842.007-17.684,0a5.5,5.5,0,0,1-.933-.035,1.863,1.863,0,0,1-.075-3.655,5.247,5.247,0,0,1,1.025-.049q8.889,0,17.777,0a3.831,3.831,0,0,0,3.28-1.468,3.517,3.517,0,0,0,.42-3.873,3.594,3.594,0,0,0-3.448-2.146c-6.05-.011-12.1,0-18.152-.011a5.665,5.665,0,0,1-1.852-.153,45.709,45.709,0,0,1-4.735-1.925,13.7,13.7,0,0,0-13.987.5,32,32,0,0,0-10.271,10.443c-.372.586-.227.891.215,1.328q5.22,5.167,10.394,10.38c.81.812,1.591,1.653,2.379,2.475m.27,5.816L12.346,190.575l-7.563,7.574,18.234,18.361,7.6-7.649" transform="translate(583.065 1472.643)"/>
    <path id="Path_44774" data-name="Path 44774" d="M177.034,0c1.184.246,2.385.431,3.55.748a20.577,20.577,0,1,1-9.025-.414c.578-.106,1.155-.222,1.732-.334ZM158.321,20.589A16.84,16.84,0,1,0,175.155,3.744a16.866,16.866,0,0,0-16.834,16.845" transform="translate(467.036 1598.002)" fill="#ff0001"/>
    <path id="Path_44779" data-name="Path 44779" d="M75.464,315.969c-.41.479-.741,1.185-1.269,1.393a2.231,2.231,0,0,1-1.874-.182,24.1,24.1,0,0,1-2.987-2.925,1.756,1.756,0,0,1,.113-2.449,1.738,1.738,0,0,1,2.444-.162c1.04.929,2.015,1.935,2.963,2.959a5.368,5.368,0,0,1,.61,1.366" transform="translate(531.365 1364.439)" fill="#ff0001"/>
    <path id="Path_44780" data-name="Path 44780" d="M217.835,34.046c0-.7-.022-1.412.005-2.125a1.862,1.862,0,1,1,3.724-.011c.033.713.006,1.429.006,1.958.943.651,1.8,1.156,2.56,1.788a1.8,1.8,0,0,1,.28,2.717,1.88,1.88,0,0,1-2.681.126,6.094,6.094,0,0,0-1.419-.869,1.856,1.856,0,0,0-2.443,1.375,1.886,1.886,0,0,0,1.617,2.226c.338.048.687.026,1.024.08a5.608,5.608,0,0,1,1.7,10.568c-.193.1-.39.194-.641.318,0,.664.017,1.348,0,2.03a1.869,1.869,0,1,1-3.731.018c-.019-.653,0-1.307,0-1.788-1.1-.844-2.168-1.54-3.088-2.392a1.85,1.85,0,0,1-.2-2.874c.82-.79,1.881-.65,2.88.279a5.666,5.666,0,0,0,1.672,1.138,1.834,1.834,0,0,0,2.434-1.378,1.891,1.891,0,0,0-1.629-2.218c-.369-.052-.75-.032-1.116-.1a5.6,5.6,0,0,1-1.6-10.552c.193-.1.39-.193.641-.316" transform="translate(422.495 1575.464)" fill="#ff0001"/>
    <rect id="Rectangle_3499" data-name="Rectangle 3499" width="95.649" height="95.649" transform="translate(583 1598.083)" fill="none"/>
  </g>
</svg>
