<svg xmlns="http://www.w3.org/2000/svg" width="73.317" height="83.772" viewBox="0 0 73.317 83.772">
  <g id="Group_145486" data-name="Group 145486" transform="translate(-568 -1896.808)">
    <path id="Path_44798" data-name="Path 44798" d="M54.833,89.608c-1.568.414-3.1.814-4.628,1.222-2.206.588-4.414,1.164-6.612,1.781a1.567,1.567,0,0,1-1.871-.447,1.6,1.6,0,0,1,.078-1.928q3.576-6.161,7.126-12.338c.164-.284.322-.571.5-.888a1.69,1.69,0,0,0-.268-.246,5.313,5.313,0,0,1-2.81-5,45.6,45.6,0,0,1,.44-5.3A5.8,5.8,0,0,0,45.2,61.334,40.229,40.229,0,0,1,41.98,57.68c-2.139-2.817-2.151-5.174-.029-7.989a39.109,39.109,0,0,1,3.221-3.65,5.832,5.832,0,0,0,1.613-5.21A40.769,40.769,0,0,1,46.34,35.9a5.533,5.533,0,0,1,4.338-5.97,52.378,52.378,0,0,1,5.263-1.211,5.471,5.471,0,0,0,3.916-2.886,52.563,52.563,0,0,1,2.773-4.639c1.772-2.523,4.015-3.2,6.956-2.267a19.632,19.632,0,0,1,1.845.719c1.13.489,2.248,1.006,3.374,1.5a5.3,5.3,0,0,0,4.458.009c1.209-.533,2.4-1.1,3.627-1.6a19.234,19.234,0,0,1,2.554-.859,5.057,5.057,0,0,1,5.36,1.725A25.348,25.348,0,0,1,92.9,23.456c.53.836.988,1.719,1.467,2.587a5.085,5.085,0,0,0,3.589,2.617c1.792.377,3.6.711,5.35,1.241,3.129.949,4.489,2.815,4.428,6.072-.034,1.829-.266,3.656-.458,5.479a5.132,5.132,0,0,0,1.354,4.233c1.08,1.173,2.184,2.329,3.181,3.57,2.509,3.121,2.494,5.759-.01,8.882a18.619,18.619,0,0,1-2.18,2.4,6.931,6.931,0,0,0-2.217,7.1,25.073,25.073,0,0,1,.331,3.588,5.656,5.656,0,0,1-3.127,5.746c.171.3.323.581.482.853q3.585,6.156,7.163,12.316a2.717,2.717,0,0,1,.435,1.246c.007.98-.94,1.537-2.032,1.247q-5.312-1.412-10.618-2.842c-.227-.061-.46-.1-.77-.167-.622,2.3-1.235,4.551-1.841,6.806-.382,1.421-.763,2.843-1.13,4.269-.2.766-.483,1.466-1.383,1.573-.856.1-1.284-.482-1.662-1.141-2.244-3.91-4.49-7.82-6.771-11.709a2.089,2.089,0,0,0-.993-.744c-1.248-.509-2.527-.938-3.783-1.428-.671-.262-1.328-.563-1.973-.883a5.821,5.821,0,0,0-5.375.011A22.653,22.653,0,0,1,69.88,88.25a4.494,4.494,0,0,0-3.107,2.6c-1.887,3.421-3.886,6.78-5.83,10.169-.387.674-.782,1.353-1.685,1.256-.93-.1-1.216-.814-1.429-1.628-.872-3.342-1.783-6.675-2.682-10.01-.085-.315-.19-.624-.314-1.027m-5.654-19.08c-.086,2.889.488,3.685,2.889,4.337a17.125,17.125,0,0,0,2.552.548,9.932,9.932,0,0,1,8.558,6.137,19.679,19.679,0,0,0,1.934,3.14,2.635,2.635,0,0,0,3.334,1.034,40.466,40.466,0,0,0,4.061-1.712A9.339,9.339,0,0,1,81.493,84a31.876,31.876,0,0,0,3.8,1.652,2.8,2.8,0,0,0,3.824-1.231,28.894,28.894,0,0,0,2.158-3.64,9.186,9.186,0,0,1,7.4-5.22,30.652,30.652,0,0,0,4.281-1.034,2.486,2.486,0,0,0,1.879-2.656,35.282,35.282,0,0,0-.32-4.219c-.528-3.375.144-6.328,2.709-8.729a21.985,21.985,0,0,0,1.66-1.782,19.858,19.858,0,0,0,1.378-1.78,2.747,2.747,0,0,0,.014-3.292,19.579,19.579,0,0,0-1.435-1.848c-.787-.909-1.615-1.783-2.423-2.674a7.808,7.808,0,0,1-2.012-6.327c.166-1.615.366-3.229.442-4.848.11-2.346-.477-3.151-2.727-3.772-1.329-.367-2.687-.645-4.047-.881a8.606,8.606,0,0,1-6.552-4.7c-.47-.907-.967-1.8-1.5-2.67A16.307,16.307,0,0,0,88.6,22.379a2.249,2.249,0,0,0-2.59-.8,37.13,37.13,0,0,0-4.331,1.75,9.568,9.568,0,0,1-9.319,0,28.283,28.283,0,0,0-3.548-1.544c-1.865-.668-2.83-.373-3.958,1.263a32.632,32.632,0,0,0-2.2,3.722A8.844,8.844,0,0,1,55.8,31.751a41.768,41.768,0,0,0-4.556,1.055,2.607,2.607,0,0,0-2.06,2.812,35.044,35.044,0,0,0,.324,4.129,9.284,9.284,0,0,1-2.755,8.8,25.73,25.73,0,0,0-2.417,2.676c-1.521,1.907-1.52,3.087.032,4.988.969,1.187,2.033,2.3,3.07,3.426A7.979,7.979,0,0,1,49.62,66.18c-.174,1.583-.322,3.17-.441,4.347m15.7,17.747c-2.029-1.218-3.091-3.175-4.156-5.132-.33-.606-.7-1.193-1.023-1.8a5.094,5.094,0,0,0-3.733-2.693c-1-.19-2.008-.376-2.993-.636a.86.86,0,0,0-1.138.514c-1.853,3.263-3.74,6.507-5.613,9.759-.106.184-.175.391-.31.7,3.121-.83,6.1-1.626,9.083-2.415,1.434-.379,1.961-.064,2.352,1.392q1.084,4.042,2.165,8.085c.079.292.182.577.324,1.021l5.042-8.8M94.2,97.091c.108-.367.149-.5.185-.634q1.156-4.308,2.313-8.615c.352-1.306.941-1.635,2.274-1.282,1.074.284,2.146.577,3.219.866l5.99,1.612c-.263-.469-.419-.752-.58-1.032q-2.162-3.749-4.329-7.5c-.5-.853-.848-2.081-1.591-2.416s-1.895.248-2.872.393a5.916,5.916,0,0,0-4.836,3.454c-.178.38-.408.736-.612,1.1-1.108,1.993-2.151,4.037-4.234,5.266L94.2,97.091" transform="translate(527.633 1878.297)" fill="#ff0001"/>
    <path id="Path_44802" data-name="Path 44802" d="M121.461,116.035a22.507,22.507,0,1,1,22.511-22.491,22.555,22.555,0,0,1-22.511,22.491m-.033-2.913a19.607,19.607,0,1,0-19.613-19.644,19.621,19.621,0,0,0,19.613,19.644" transform="translate(483.193 1838.449)"/>
    <path id="Path_44804" data-name="Path 44804" d="M145.365,140.976c.3-.284.54-.5.77-.734q6.7-6.7,13.4-13.395a4.129,4.129,0,0,1,.736-.659,1.418,1.418,0,0,1,1.94,1.98,3.994,3.994,0,0,1-.593.675q-7.388,7.411-14.78,14.817c-1.122,1.124-1.74,1.117-2.876-.018q-4.275-4.273-8.547-8.548c-.128-.128-.262-.249-.381-.384a1.456,1.456,0,0,1-.072-2.033,1.388,1.388,0,0,1,2.086,0c1.365,1.312,2.692,2.666,4.032,4,1.419,1.419,2.837,2.84,4.29,4.3" transform="translate(456.139 1796.767)"/>
  </g>
</svg>
