<svg xmlns="http://www.w3.org/2000/svg" width="98.499" height="98.499" viewBox="0 0 98.499 98.499">
  <g id="Group_145483" data-name="Group 145483" transform="translate(-204 -1524.878)">
    <path id="Path_44782" data-name="Path 44782" d="M32.288,143.038c-3.6-.541-6.18-2.7-8.531-5.274-1.035-1.132-2.165-2.178-3.251-3.264q-7.872-7.873-15.744-15.747c-4.887-4.89-4.9-11.57-.036-16.455,2.211-2.22,4.429-4.434,6.583-6.589L23.11,107.5c-1.105,1.078-2.293,2.226-3.47,3.385-.889.875-1.782,1.748-2.643,2.651a1.529,1.529,0,0,0-.164,2.168c1.775,1.825,3.612,3.59,5.5,5.452.244-.7.452-1.323.685-1.942a10.874,10.874,0,0,1,8.653-7.3c3.2-.605,6.412-1.167,9.618-1.752.248-.045.49-.12,1.046-.258a4.9,4.9,0,0,0-.843-1.08,16.185,16.185,0,0,1-6.907-9.691,1.278,1.278,0,0,0-.672-.762,6.376,6.376,0,0,1-4.5-6.429c-.006-3.551-.015-7.1,0-10.654A20.654,20.654,0,0,1,47.678,60.711c11.252-1.418,21.969,7.177,22.809,18.47.3,4.01.14,8.056.169,12.085.02,2.815.008,5.631,0,8.446-.007,3.3-1.969,5.371-5.233,5.245-1.81-.07-3.215.228-4.36,1.788a15.027,15.027,0,0,1-2.576,2.123,6.119,6.119,0,0,0-.762,1.068l5.5,1.028c1.978.37,3.977.655,5.931,1.126a10.459,10.459,0,0,1,7.74,6.792c1.357,3.651,2.5,7.379,3.739,11.075a1.576,1.576,0,0,1,0,.378H47.025l-.1.195,2.472,2.074c-3.307,2.965-6.32,5.732-9.411,8.408a11.266,11.266,0,0,1-5.006,2.025ZM37.419,121c1.88,1.888,3.7,3.684,5.477,5.519a2.01,2.01,0,0,0,1.589.664q15.354-.029,30.709-.013h1.164c-.792-2.386-1.492-4.637-2.287-6.854a7.788,7.788,0,0,0-6.272-5.3c-2.575-.484-5.212-.736-7.718-1.45a4.628,4.628,0,0,0-5.518,1.743,59.531,59.531,0,0,1-4.519,4.577c-.3-.279-.531-.491-.755-.715-1.879-1.876-3.741-3.769-5.65-5.613a1.541,1.541,0,0,0-1.149-.385c-3.465.585-6.926,1.2-10.375,1.87A7.783,7.783,0,0,0,26,120.265c-.346.927-.613,1.883-.957,2.81a.94.94,0,0,0,.271,1.174c.891.826,1.727,1.71,2.588,2.568,1.141,1.136,1.807,1.147,3.025.047,2.135-1.927,4.268-3.857,6.494-5.869M50.077,77.32c4.134,4.927,9.338,7.411,15.808,7.028v1.8l1.386.524c0-2.708.331-5.407-.063-7.995-1.091-7.162-5.259-12.023-12.168-14.123-6.888-2.093-12.952-.249-17.915,4.954-4.645,4.869-4.877,10.931-4.423,17.21l1.449-.567c.028-.576.054-1.138.085-1.788A19.486,19.486,0,0,0,43,82.825a22.864,22.864,0,0,0,7.081-5.5M37.342,87.5c0,2.844-.107,5.6.023,8.335A12.168,12.168,0,0,0,44.5,106.844a12.2,12.2,0,0,0,12.821-1.028c.292-.195.551-.438.825-.658l-.106-.205H50.1v-3.161h1.126c2.975,0,5.95-.024,8.925.018a1.222,1.222,0,0,0,1.3-.826,13.136,13.136,0,0,0,1.256-5.565c0-2.367-.018-4.734.017-7.1.01-.655-.213-.885-.857-.947A18.41,18.41,0,0,1,54.1,84.835c-1.419-.849-2.734-1.872-4.174-2.871A20.844,20.844,0,0,1,37.342,87.5M7.406,104.177a7.915,7.915,0,0,0-.754,11.989c.534.551,1.084,1.087,1.627,1.63q9.8,9.8,19.614,19.6a7.943,7.943,0,0,0,12.021-.577l-7.221-7.251c-2.415,1.885-4.779,1.74-7.018-.5-3.575-3.571-7.17-7.123-10.7-10.739a6.645,6.645,0,0,1-1.479-2.4,4.535,4.535,0,0,1,1.117-4.547l-7.207-7.209m35.2,30.3,1.818-1.718-7.219-7.288-1.9,1.724,7.3,7.282M9.845,101.727l7.06,7.109,1.539-1.469-7.138-7.157-1.461,1.517m35.828,9.008,4.361,4.376,4.434-4.416a16.164,16.164,0,0,1-8.8.04M67.331,97.818c-.628.336-1.473.507-1.749,1a13.386,13.386,0,0,0-.9,2.887c2.525.342,3.2-.613,2.645-3.885M34.139,89.657a2.792,2.792,0,0,0-1.5,2.269,2.7,2.7,0,0,0,1.5,2.919Zm31.785,5.326a3.079,3.079,0,0,0,1.495-3.136,2.875,2.875,0,0,0-1.495-2.211Z" transform="translate(203.201 1480.339)"/>
    <path id="Path_44783" data-name="Path 44783" d="M259.366,32.441l1.62-9.511h-3.481c-3.633,0-5.517-1.872-5.519-5.477q0-5.758,0-11.516c.007-3.24,1.972-5.213,5.189-5.214q10.7-.006,21.4,0A4.731,4.731,0,0,1,283.7,5.79q.029,6.046,0,12.092c-.018,3.082-1.981,5.19-5.051,4.994a11.474,11.474,0,0,0-7.565,2.226c-3.5,2.4-7.182,4.547-10.788,6.8-.24.15-.488.285-.926.54m4.355-6.6c.171-.012.245.005.292-.024,1.9-1.18,3.9-2.227,5.671-3.578a11.76,11.76,0,0,1,8.808-2.529c1.513.167,2.056-.5,2.057-2.058q.007-5.8,0-11.609c0-1.621-.5-2.135-2.11-2.136q-10.6-.007-21.2,0c-1.564,0-2.045.5-2.047,2.081q-.006,5.8,0,11.609c0,1.685.467,2.141,2.174,2.142,2.424,0,4.848,0,7.376,0l-1.018,6.1" transform="translate(18.672 1524.349)" fill="#ff0001"/>
    <path id="Path_44784" data-name="Path 44784" d="M10.234,53.067l4.186-2.5,1.623,2.7-9.28,5.574L1.2,49.582l2.7-1.646L6.87,52.848C13.3,26.063,40.917,13.242,63.234,20.672l-.885,2.874c-24.678-7.8-47.812,9.4-52.115,29.521" transform="translate(203.119 1511.208)" fill="#ff0001"/>
    <path id="Path_44785" data-name="Path 44785" d="M314.236,118.7l-2.773,4.586-2.716-1.613,5.568-9.282,9.271,5.561-1.612,2.722-4.56-2.719c4.536,15.338,1.985,29.272-7.618,42-.245-.167-.378-.245-.5-.34-.647-.52-1.29-1.044-2.035-1.649a41.362,41.362,0,0,0,6.974-39.266" transform="translate(-21.984 1442.218)" fill="#ff0001"/>
    <rect id="Rectangle_3500" data-name="Rectangle 3500" width="18.915" height="3.029" transform="translate(277.067 1531.49)" fill="#ff0001"/>
    <rect id="Rectangle_3501" data-name="Rectangle 3501" width="12.594" height="3.06" transform="translate(277.047 1537.808)" fill="#ff0001"/>
    <rect id="Rectangle_3502" data-name="Rectangle 3502" width="3.028" height="3.055" transform="translate(292.939 1537.828)" fill="#ff0001"/>
    <rect id="Rectangle_3503" data-name="Rectangle 3503" width="98.499" height="98.499" transform="translate(204 1524.878)" fill="none"/>
  </g>
</svg>
