<svg xmlns="http://www.w3.org/2000/svg" width="79.492" height="87.579" viewBox="0 0 79.492 87.579">
  <g id="Group_145487" data-name="Group 145487" transform="translate(-902 -1856.002)">
    <path id="Path_44731" data-name="Path 44731" d="M147.054,292.776c-11.683-5.463-21.609-13.054-28.891-23.848a58.714,58.714,0,0,1-8.653-19.753,2.149,2.149,0,0,1,.239-1.577c.605-.819,1.774-.364,2.1.737.638,2.184,1.171,4.407,1.951,6.539a59.313,59.313,0,0,0,22.848,29.08c3.323,2.276,6.962,4.094,10.48,6.08a1.482,1.482,0,0,0,1.186.024c10.831-5.2,20.046-12.355,26.847-22.394a56.9,56.9,0,0,0,8.337-18.783c.053-.221.1-.446.17-.662a1.2,1.2,0,0,1,1.428-.926,1.167,1.167,0,0,1,.963,1.463c-.216,1.087-.5,2.164-.81,3.227-4.313,14.587-13.042,25.941-25.553,34.4-3.568,2.411-7.5,4.278-11.27,6.394Z" transform="translate(794.015 1650.805)" fill="red"/>
    <path id="Path_44732" data-name="Path 44732" d="M197.012,112.03a52.581,52.581,0,0,1-9.214,30.876,60.782,60.782,0,0,1-22.466,19.924,3.945,3.945,0,0,1-3.924,0c-12.42-6.677-21.878-16.15-27.5-29.22a51.969,51.969,0,0,1-4.184-20.528c-.009-2.308.021-4.617-.009-6.925a4.2,4.2,0,0,1,2.829-4.314,21.9,21.9,0,0,0,11.593-10.719,3.977,3.977,0,0,1,3.838-2.357q15.39.011,30.779,0a3.972,3.972,0,0,1,3.84,2.353A21.823,21.823,0,0,0,194.11,101.8a4.284,4.284,0,0,1,2.91,4.436C196.982,107.948,197.012,109.658,197.012,112.03ZM163.386,91.24q-7.568,0-15.137-.006a1.826,1.826,0,0,0-1.893,1.007A24.4,24.4,0,0,1,133.4,104.194a1.7,1.7,0,0,0-1.18,1.763c.029,2.594-.01,5.188.018,7.782a49.486,49.486,0,0,0,6.365,23.847,57.666,57.666,0,0,0,23.774,22.946,2.075,2.075,0,0,0,2.167-.1,58.984,58.984,0,0,0,19.726-16.855,49.34,49.34,0,0,0,9.871-24.944c.39-4.073.266-8.2.354-12.3.032-1.51-.137-1.7-1.522-2.3A24.216,24.216,0,0,1,180.519,92.5a2.057,2.057,0,0,0-2.082-1.272C173.42,91.255,168.4,91.24,163.386,91.24Z" transform="translate(778.386 1773.018)" fill="red"/>
    <path id="Path_44733" data-name="Path 44733" d="M142.786,63.464q10.134,0,20.268,0c2.279,0,3.4,1.029,3.852,3.268,1.055,5.237,4.368,8.492,9.282,10.233a17.964,17.964,0,0,0,3.158.707,3.346,3.346,0,0,1,3.159,3.584q0,7.91-.06,15.82c-.007.967-.1,1.935-.191,2.9-.084.921-.653,1.417-1.444,1.314-.731-.1-1.076-.686-1.06-1.586q.162-9.23.289-18.461c.011-.708-.372-.988-1.048-1.076a17.448,17.448,0,0,1-9.414-4.1,14.724,14.724,0,0,1-5.117-8.929,1.212,1.212,0,0,0-1.425-1.179q-20.267.032-40.535,0c-.818,0-1.28.226-1.408,1.091-.871,5.865-5.687,11.263-12.865,12.826a16.173,16.173,0,0,1-1.767.3c-.72.075-.97.475-.967,1.148.009,1.91-.027,3.82.009,5.729.08,4.272.189,8.544.293,12.816a1.316,1.316,0,0,1-1.171,1.509A1.262,1.262,0,0,1,103.3,100.1c-.122-1.933-.245-3.87-.262-5.806-.039-4.275-.017-8.552-.011-12.827,0-2.337,1.063-3.523,3.376-3.807a14,14,0,0,0,11.977-9.8,13.567,13.567,0,0,0,.283-1.335,3.391,3.391,0,0,1,3.6-3.057Q132.524,63.459,142.786,63.464Z" transform="translate(798.987 1792.539)" fill="red"/>
    <path id="Path_44735" data-name="Path 44735" d="M227.963,138.45c.669,0,1.208,0,1.748,0a3.971,3.971,0,0,1,4.276,4.268c.018,3.221,0,6.442,0,9.663,0,2.48.007,4.96,0,7.44-.01,2.79-1.615,4.392-4.423,4.394q-13.768.01-27.535,0c-2.869,0-4.428-1.579-4.429-4.456q0-8.466,0-16.932c0-2.81,1.579-4.373,4.406-4.378H203.6c0-.333-.005-.631,0-.928.045-2.249-.08-4.518.172-6.743a12.141,12.141,0,0,1,23.913-.793,19.788,19.788,0,0,1,.264,3.228C227.994,134.919,227.963,136.626,227.963,138.45Zm-12.23,23.276q6.922,0,13.844,0c1.4,0,1.9-.5,1.9-1.9q0-8.5,0-17.006c0-1.4-.488-1.88-1.92-1.881q-13.759-.006-27.517,0c-1.478,0-1.95.467-1.951,1.942q-.008,8.46,0,16.92c0,1.454.494,1.927,1.967,1.928Q208.9,161.729,215.732,161.726Zm9.746-23.318c0-2.047.022-4.034,0-6.021a9.715,9.715,0,0,0-8.337-9.482c-5.027-.6-9.687,2.38-10.667,7.242-.536,2.661-.344,5.469-.483,8.261Z" transform="translate(726.014 1748.67)"/>
    <path id="Path_44738" data-name="Path 44738" d="M266.04,244.831c0-.256-.018-.513,0-.768a1.755,1.755,0,0,0-.729-1.73,2.793,2.793,0,0,1-.13-4.1,2.914,2.914,0,0,1,4.2,0,2.816,2.816,0,0,1-.129,4.108,1.841,1.841,0,0,0-.721,1.742c.031.738.028,1.48,0,2.218a1.253,1.253,0,1,1-2.49-.015c0-.028,0-.057,0-.085Z" transform="translate(674.516 1658.398)"/>
  </g>
</svg>
