<svg xmlns="http://www.w3.org/2000/svg" width="87.716" height="82.004" viewBox="0 0 87.716 82.004">
  <g id="Group_145485" data-name="Group 145485" transform="translate(-712 -1632.406)">
    <path id="Path_44806" data-name="Path 44806" d="M0,146.562A3.616,3.616,0,0,1,3.909,144.2c3.167.077,6.338.017,9.507.022,2.348,0,3.54,1.191,3.544,3.52,0,.938,0,1.876,0,2.805a30.271,30.271,0,0,1,3.735.649c1.683.506,3.312,1.2,4.948,1.847a8.6,8.6,0,0,1,1.5.825,23.984,23.984,0,0,0,12.529,3.705c4.271.171,8.542.6,12.784,1.145a7.492,7.492,0,0,1,6.462,6.967c.056.648.254.911.913.9.769-.01,1.542.117,2.308.08a2.425,2.425,0,0,0,1.156-.421q7.908-5.266,15.791-10.571a5.414,5.414,0,0,1,5.114-.767,5.293,5.293,0,0,1,1.757,8.936c-2.669,2.5-5.418,4.905-8.134,7.35-2.546,2.292-5.154,4.521-7.626,6.889a15.418,15.418,0,0,1-8.991,4.134q-11.109,1.486-22.184,3.212c-3.036.474-5.943.527-8.763-.891a29.086,29.086,0,0,0-2.791-1.074q-4.717-1.788-9.434-3.575c-.317-.12-.64-.222-.95-.329-.055.088-.105.131-.107.176-.128,2.774-1.1,3.708-3.863,3.708-3.055,0-6.112-.074-9.164.027A3.667,3.667,0,0,1,0,181.175Zm16.96,6.675c0,.978.005,1.832,0,2.685-.008,1.021-.458,1.591-1.255,1.608-.829.018-1.31-.571-1.312-1.637,0-2.655,0-5.311,0-7.966,0-1.076-.052-1.134-1.091-1.136-3.226,0-6.452.018-9.677-.015-.829-.008-1.07.285-1.068,1.1q.036,15.974,0,31.95c0,.854.3,1.065,1.1,1.057,3.2-.034,6.394-.013,9.591-.015,1.137,0,1.149-.013,1.149-1.143q0-8.523,0-17.045a4.323,4.323,0,0,1,.02-.77,1.274,1.274,0,0,1,2.525-.029,4.047,4.047,0,0,1,.023.769c0,4.426.013,8.851-.013,13.277a.979.979,0,0,0,.754,1.106q7.648,2.851,15.27,5.776a6.724,6.724,0,0,0,3.444.355c8.214-1.183,16.422-2.4,24.643-3.532a12.589,12.589,0,0,0,7.309-3.369c2.121-2.034,4.358-3.948,6.543-5.915,3.077-2.769,6.161-5.53,9.223-8.315a2.716,2.716,0,0,0,.722-3.336,2.636,2.636,0,0,0-2.9-1.5,4.293,4.293,0,0,0-1.535.69q-8.124,5.4-16.215,10.855a3.023,3.023,0,0,1-2.085.53,34.057,34.057,0,0,0-4.528-.225c-3.876.182-7.746.5-11.62.734q-6.794.412-13.59.769a5.043,5.043,0,0,1-4.028-1.746,1.311,1.311,0,0,1-.087-1.909,1.29,1.29,0,0,1,1.9.115,3.165,3.165,0,0,0,2.621.981q10.424-.66,20.851-1.281c.9-.055,1.8-.127,2.685-.19a5.124,5.124,0,0,0-4.654-5.373c-4.745-.432-9.487-.933-14.242-1.2a20.66,20.66,0,0,1-9.5-2.735c-1.229-.721-2.487-1.394-3.752-2.052a17.024,17.024,0,0,0-7.213-1.925" transform="translate(712 1528.681)"/>
    <path id="Path_44807" data-name="Path 44807" d="M88.726,10.191q6.292,0,12.585,0c2.024,0,2.817.7,3.123,2.711A11.16,11.16,0,0,0,111,21.787c1.736.827,2.361,1.745,2.119,3.655-1.739,13.755-7.491,25.141-19.506,32.781-1.056.671-2.2,1.2-3.283,1.833a2.6,2.6,0,0,1-2.667.027c-10.5-5.1-17.2-13.453-20.958-24.344A46.523,46.523,0,0,1,64.416,25.5,2.979,2.979,0,0,1,66.2,22.215,11.329,11.329,0,0,0,73.052,12.6a2.461,2.461,0,0,1,2.662-2.247c4.337-.014,8.675,0,13.012,0v-.16M75.662,12.879c-.053.223-.088.33-.1.441a13.678,13.678,0,0,1-8.081,11.107A.811.811,0,0,0,67,25.468c.481,2.373.793,4.792,1.451,7.114,2.96,10.457,8.764,18.791,18.4,24.182,2.139,1.2,2.148,1.21,4.272-.042,12-7.074,17.688-18.055,19.457-31.464.09-.682-.214-.947-.771-1.209a13.412,13.412,0,0,1-7.331-8.266c-.315-.966-.49-1.977-.714-2.9Z" transform="translate(667.057 1622.215)" fill="#ff0001"/>
    <path id="Path_44811" data-name="Path 44811" d="M100.5,26.217q4.624,0,9.249,0a2.142,2.142,0,0,1,2.462,1.764,15.21,15.21,0,0,0,6.35,8.138,2.3,2.3,0,0,1,1.2,2.73c-.277,1.164-.469,2.348-.739,3.515-.213.921-.839,1.371-1.57,1.207-.788-.178-1.14-.846-.937-1.817.193-.921.454-1.831.583-2.76a1.2,1.2,0,0,0-.376-.966,18.137,18.137,0,0,1-6.728-8.648.77.77,0,0,0-.856-.6c-5.795.058-11.59.087-17.384.156a.951.951,0,0,0-.7.509,18.5,18.5,0,0,1-6.691,8.79,1.2,1.2,0,0,0-.342.981c.145.956.417,1.891.619,2.839a1.278,1.278,0,1,1-2.454.648q-.519-2.073-.919-4.174a1.741,1.741,0,0,1,.8-1.86,16,16,0,0,0,6.858-8.989A1.934,1.934,0,0,1,91,26.337c3.169.009,6.337,0,9.506,0v-.123" transform="translate(655.302 1611.03)" fill="#ff0001"/>
    <path id="Path_44812" data-name="Path 44812" d="M107.358,113.422a8.212,8.212,0,0,1-1.152-.422A34.632,34.632,0,0,1,90.853,95.752a1.282,1.282,0,0,1,.6-1.871c.7-.3,1.383.016,1.762.888a31.48,31.48,0,0,0,7.41,10.892c1.838,1.686,3.96,3.062,5.938,4.6a1.163,1.163,0,0,0,1.53-.031A32.447,32.447,0,0,0,120.844,95.4c.128-.286.239-.58.375-.863a1.293,1.293,0,1,1,2.339,1.059,37.116,37.116,0,0,1-6.411,10.36,33.3,33.3,0,0,1-8.539,6.927,12.028,12.028,0,0,1-1.25.537" transform="translate(648.707 1563.981)" fill="#ff0001"/>
    <path id="Path_44813" data-name="Path 44813" d="M127.628,73.4c2.5-3.773,4.923-7.432,7.348-11.09a4.4,4.4,0,0,1,.5-.691A1.264,1.264,0,0,1,137.551,63a4.94,4.94,0,0,1-.389.661q-3.965,5.989-7.935,11.975c-.858,1.294-1.534,1.366-2.672.289q-2.361-2.235-4.717-4.476c-.756-.722-.852-1.511-.279-2.081s1.27-.5,2.027.207c1.328,1.245,2.647,2.5,4.042,3.819" transform="translate(627.411 1586.622)" fill="#ff0001"/>
    <path id="Path_44814" data-name="Path 44814" d="M6.257,4.525c-.39.455-.705,1.128-1.208,1.326a2.123,2.123,0,0,1-1.783-.173A22.932,22.932,0,0,1,.423,2.893,1.671,1.671,0,0,1,.531.563,1.654,1.654,0,0,1,2.857.409c.99.884,1.918,1.841,2.819,2.816a5.108,5.108,0,0,1,.58,1.3" transform="translate(721.128 1697.915) rotate(47)" fill="#ff0001"/>
  </g>
</svg>
