<svg id="download" xmlns="http://www.w3.org/2000/svg" width="19.492" height="19.492" viewBox="0 0 19.492 19.492">
  <path id="Path_44723" data-name="Path 44723" d="M9.22,14.718a2.437,2.437,0,0,0,3.447,0l2.608-2.608a.812.812,0,0,0-1.148-1.146L11.75,13.342,11.755.812A.812.812,0,0,0,10.943,0h0a.812.812,0,0,0-.812.812l-.007,12.514L7.76,10.964a.812.812,0,0,0-1.148,1.149Z" transform="translate(-1.197)" fill="#e31d25"/>
  <path id="Path_44724" data-name="Path 44724" d="M18.68,16h0a.812.812,0,0,0-.812.812v3.249a.812.812,0,0,1-.812.812H2.437a.812.812,0,0,1-.812-.812V16.812A.812.812,0,0,0,.812,16h0A.812.812,0,0,0,0,16.812v3.249A2.437,2.437,0,0,0,2.437,22.5H17.056a2.437,2.437,0,0,0,2.437-2.437V16.812A.812.812,0,0,0,18.68,16Z" transform="translate(0 -3.005)" fill="#e31d25"/>
</svg>
