<svg xmlns="http://www.w3.org/2000/svg" width="13.514" height="13.514" viewBox="0 0 13.514 13.514">
  <g id="Icon_feather-instagram" data-name="Icon feather-instagram" transform="translate(0.5 0.5)">
    <path id="Path_3" data-name="Path 3" d="M6.129,3h6.257a3.129,3.129,0,0,1,3.129,3.129v6.257a3.129,3.129,0,0,1-3.129,3.129H6.129A3.129,3.129,0,0,1,3,12.386V6.129A3.129,3.129,0,0,1,6.129,3Z" transform="translate(-3 -3)" fill="none" stroke="#fff" stroke-linecap="round" stroke-linejoin="round" stroke-width="1"/>
    <path id="Path_4" data-name="Path 4" d="M17.043,14.071a2.5,2.5,0,1,1-2.109-2.109,2.5,2.5,0,0,1,2.109,2.109Z" transform="translate(-8.283 -8.208)" fill="none" stroke="#fff" stroke-linecap="round" stroke-linejoin="round" stroke-width="1"/>
    <path id="Path_5" data-name="Path 5" d="M26.25,9.75h0" transform="translate(-16.551 -6.934)" fill="none" stroke="#fff" stroke-linecap="round" stroke-linejoin="round" stroke-width="1"/>
  </g>
</svg>
