<svg xmlns="http://www.w3.org/2000/svg" width="14" height="14" viewBox="0 0 14 14">
  <g id="linkedin" transform="translate(-18173 -9254)">
    <rect id="Rectangle_3592" data-name="Rectangle 3592" width="14" height="14" transform="translate(18173 9254)" fill="none"/>
    <g id="XMLID_801_" transform="translate(18173.934 9254.606)">
      <path id="XMLID_802_" d="M7.558,99.73H5.123a.2.2,0,0,0-.2.2v7.824a.2.2,0,0,0,.2.2H7.558a.2.2,0,0,0,.2-.2V99.926A.2.2,0,0,0,7.558,99.73Z" transform="translate(-4.734 -95.5)" fill="#fff"/>
      <path id="XMLID_803_" d="M1.607.341A1.606,1.606,0,1,0,3.213,1.946,1.608,1.608,0,0,0,1.607.341Z" transform="translate(0 0)" fill="#fff"/>
      <path id="XMLID_804_" d="M111.039,94.761a2.86,2.86,0,0,0-2.14.9v-.508a.2.2,0,0,0-.2-.2h-2.332a.2.2,0,0,0-.2.2v7.824a.2.2,0,0,0,.2.2h2.43a.2.2,0,0,0,.2-.2V99.1c0-1.3.354-1.813,1.264-1.813.99,0,1.069.815,1.069,1.88v3.8a.2.2,0,0,0,.2.2h2.431a.2.2,0,0,0,.2-.2V98.684C114.152,96.744,113.783,94.761,111.039,94.761Z" transform="translate(-102.021 -90.725)" fill="#fff"/>
    </g>
  </g>
</svg>
