<svg xmlns="http://www.w3.org/2000/svg" width="15.408" height="12.514" viewBox="0 0 15.408 12.514">
  <path id="Icon_awesome-twitter" data-name="Icon awesome-twitter" d="M13.824,6.5c.01.137.01.274.01.411a8.923,8.923,0,0,1-8.985,8.985A8.924,8.924,0,0,1,0,14.477a6.532,6.532,0,0,0,.763.039,6.324,6.324,0,0,0,3.92-1.349,3.163,3.163,0,0,1-2.953-2.19,3.982,3.982,0,0,0,.6.049,3.34,3.34,0,0,0,.831-.108,3.158,3.158,0,0,1-2.532-3.1V7.78a3.18,3.18,0,0,0,1.427.4,3.163,3.163,0,0,1-.978-4.224,8.976,8.976,0,0,0,6.511,3.3,3.565,3.565,0,0,1-.078-.723,3.161,3.161,0,0,1,5.465-2.161,6.217,6.217,0,0,0,2-.763,3.149,3.149,0,0,1-1.388,1.74,6.331,6.331,0,0,0,1.818-.489A6.788,6.788,0,0,1,13.824,6.5Z" transform="translate(0 -3.381)" fill="#fff"/>
</svg>
