<svg xmlns="http://www.w3.org/2000/svg" width="14.24" height="10.013" viewBox="0 0 14.24 10.013">
  <path id="Icon_awesome-youtube" data-name="Icon awesome-youtube" d="M14.993,6.067A1.789,1.789,0,0,0,13.734,4.8,42.285,42.285,0,0,0,8.17,4.5a42.285,42.285,0,0,0-5.564.3A1.789,1.789,0,0,0,1.348,6.067a18.77,18.77,0,0,0-.3,3.45,18.77,18.77,0,0,0,.3,3.45,1.763,1.763,0,0,0,1.259,1.247,42.286,42.286,0,0,0,5.564.3,42.285,42.285,0,0,0,5.564-.3,1.763,1.763,0,0,0,1.259-1.247,18.77,18.77,0,0,0,.3-3.45,18.77,18.77,0,0,0-.3-3.45ZM6.714,11.634V7.4l3.722,2.117L6.714,11.634Z" transform="translate(-1.05 -4.5)" fill="#fff"/>
</svg>
