<svg xmlns="http://www.w3.org/2000/svg" width="98.514" height="98.499" viewBox="0 0 98.514 98.499">
  <g id="Group_145344" data-name="Group 145344" transform="translate(-19108.774 -4370.83)">
    <path id="Path_44816" data-name="Path 44816" d="M1.73,99.329c-1.062-.834-1.161-1.18-.676-2.458q7-18.449,13.99-36.9a3.026,3.026,0,0,1,1.452-1.684c4.646-2.583,9.27-5.206,13.9-7.818.275-.155.54-.325.9-.54-1.069-1.693-2.086-3.355-3.153-4.984a33.122,33.122,0,0,1-4.732-10.128,27.418,27.418,0,1,1,53.7-10.84A26.994,26.994,0,0,1,73.168,42.94c-1.444,2.3-2.895,4.6-4.384,6.97.313.2.565.378.833.529,4.6,2.595,9.2,5.2,13.821,7.765a3.389,3.389,0,0,1,1.624,1.9q6.9,18.279,13.856,36.539c.1.264.247.51.371.764v1.924H97.364c-.041-.047-.073-.11-.124-.139Q85.9,92.8,74.577,86.408a1.215,1.215,0,0,0-1.388.077c-5.292,3-10.6,5.969-15.887,8.966-2.244,1.271-4.465,2.584-6.7,3.877H49.451a2.139,2.139,0,0,0-.338-.3Q37.907,92.711,26.7,86.387a1.068,1.068,0,0,0-1.217.036c-3.17,1.806-6.355,3.586-9.53,5.383Q9.321,95.561,2.692,99.329ZM74.605,28.237c-.1-1.116-.148-2.239-.3-3.349A24.538,24.538,0,0,0,46.577,3.928C29.337,6.384,19.922,25.8,28.931,40.676,35.32,51.225,42.046,61.57,48.632,72c.828,1.311,1.962,1.312,2.789,0,6.568-10.4,13.154-20.8,19.67-31.231a23.851,23.851,0,0,0,3.514-12.534M5.085,94.554c.276-.123.421-.174.554-.249C11.862,90.8,18.088,87.3,24.291,83.758A1.849,1.849,0,0,0,25,82.634c.922-4.157,1.79-8.327,2.695-12.488a1.4,1.4,0,0,1,1.8-1.253,1.447,1.447,0,0,1,1,1.888c-.251,1.223-.519,2.443-.778,3.664-.648,3.064-1.3,6.128-1.951,9.233l20.7,11.656a1.781,1.781,0,0,0,.107-.33c.008-6.285.019-12.57,0-18.854a1.332,1.332,0,0,0-.443-.733,15.882,15.882,0,0,1-2.043-2.1c-3.839-5.988-7.613-12.017-11.41-18.032-.174-.275-.364-.54-.636-.94-.1.325-.138.439-.163.557-.7,3.256-1.384,6.515-2.093,9.768-.222,1.022-.915,1.528-1.751,1.349a1.479,1.479,0,0,1-1.049-1.949c.38-1.818.773-3.633,1.156-5.45.359-1.7.713-3.41,1.091-5.22a4.663,4.663,0,0,0-.5.2c-4.13,2.327-8.265,4.644-12.375,7.007a2.2,2.2,0,0,0-.825,1.082Q11.45,77.565,5.429,93.46c-.12.316-.2.645-.343,1.095m46.387.823c.489-.253.774-.389,1.048-.544,6.279-3.538,12.549-7.091,18.845-10.6a1.251,1.251,0,0,0,.737-1.642c-1.812-8.355-3.573-16.72-5.352-25.083-.213-1-.448-2-.716-3.2-.311.47-.491.731-.659,1C61.6,61.3,57.832,67.3,54.022,73.269a6.825,6.825,0,0,1-1.81,1.931,1.432,1.432,0,0,0-.751,1.366c.019,5.9.011,11.8.011,17.7v1.111M68.9,53.352a3.4,3.4,0,0,0,0,.474q3.079,14.515,6.188,29.024a1.706,1.706,0,0,0,.775.97q9.144,5.2,18.32,10.345c.21.118.433.212.784.382-.129-.406-.2-.675-.3-.934Q88.6,77.587,82.5,61.573a2.365,2.365,0,0,0-.966-1.086c-2.153-1.266-4.341-2.471-6.518-3.7L68.9,53.352" transform="translate(19108 4370)" fill="#ff0001"/>
    <path id="Path_44823" data-name="Path 44823" d="M162.384,61.559a15.867,15.867,0,1,1-15.8-15.9,15.887,15.887,0,0,1,15.8,15.9M133.537,61.5a12.979,12.979,0,1,0,13.093-12.944A13,13,0,0,0,133.537,61.5" transform="translate(19011.51 4336.691)" fill="#fff"/>
    <path id="Path_44825" data-name="Path 44825" d="M173.306,78.375a10.085,10.085,0,1,1-9.843-10.239,10.095,10.095,0,0,1,9.843,10.239m-2.881-.135a7.2,7.2,0,1,0-7.213,7.2,7.21,7.21,0,0,0,7.213-7.2" transform="translate(18994.805 4319.998)" fill="#fff"/>
  </g>
</svg>
