<svg xmlns="http://www.w3.org/2000/svg" width="84.583" height="89.047" viewBox="0 0 84.583 89.047">
  <g id="Group_145345" data-name="Group 145345" transform="translate(-19554.27 -4370)">
    <path id="Path_44828" data-name="Path 44828" d="M84.06,0c.391.171.794.318,1.171.517A4.7,4.7,0,0,1,87.845,4.9c.022,1.586,0,3.172,0,4.845.518,0,.945,0,1.372,0a5.385,5.385,0,0,1,5.627,5.639q.012,19.957,0,39.914,0,13.87,0,27.74c0,3.849-2.174,6.007-6.047,6.007q-8.522,0-17.044-.009c-.393,0-.916,0-1.148-.225a1.782,1.782,0,0,1-.576-1.3c.071-.4.591-.764.987-1.037.2-.138.563-.044.853-.044q8.522,0,17.044,0c2.244,0,3.313-1.063,3.313-3.289q0-27.348,0-54.7v-.966H35.688c-1.408,0-2.045-.4-2.057-1.3s.632-1.323,2.026-1.323H92.234v-.944q0-4.087,0-8.174c0-2.354-1.033-3.38-3.4-3.378H87.85c0,.624.008,1.192,0,1.759a4.734,4.734,0,1,1-9.464.068c-.017-.573,0-1.148,0-1.774H72.574c0,.639.012,1.267,0,1.894a4.714,4.714,0,0,1-9.427.041c-.02-.63,0-1.262,0-1.922a4.97,4.97,0,0,0-.511-.063c-1.736,0-3.471,0-5.34,0,0,.679.009,1.3,0,1.929a4.709,4.709,0,1,1-9.418-.013c-.01-.6,0-1.2,0-1.862H42.005c0,.728.034,1.469-.007,2.206a4.69,4.69,0,0,1-9.243.784,23.383,23.383,0,0,1-.246-2.986H26.773c0,.65.031,1.3-.006,1.955a4.71,4.71,0,0,1-4.075,4.594,4.619,4.619,0,0,1-5.145-3.324,21.915,21.915,0,0,1-.344-3.234c-1.245-.1-2.562-.262-3.491.862a3.175,3.175,0,0,0-.748,1.782c-.073,3.158-.034,6.318-.03,9.478a1.6,1.6,0,0,0,.088.323h15.97a5.481,5.481,0,0,1,.868.023,1.3,1.3,0,0,1,.094,2.554,3.6,3.6,0,0,1-.865.043q-7.565,0-15.131,0H12.927v1q0,27.3,0,54.61c0,2.294,1.046,3.342,3.346,3.342H65.318c1.353,0,1.97.39,2,1.262.031.9-.634,1.352-2.007,1.352H16.265c-3.755,0-5.955-2.186-5.955-5.923,0-22.435.039-44.871-.04-67.305-.013-3.7,2.644-6.362,6.106-6.075.28.023.563,0,.935,0,0-1.3.066-2.512-.013-3.715C17.1,3.075,18.186.971,21.1,0h1.913C25.914.985,27,3.082,26.8,6.035c-.084,1.2-.014,2.413-.014,3.648h5.806c0-1.68-.014-3.3,0-4.914A4.6,4.6,0,0,1,34.777.76,12.355,12.355,0,0,1,36.406,0h1.739a4,4,0,0,0,.393.167,4.65,4.65,0,0,1,3.477,4.542c.024.867.008,1.736.009,2.6q0,1.2,0,2.389H47.83c.014-.322.036-.6.037-.886,0-1.36-.02-2.72.009-4.079C47.929,2.176,49.414.754,51.711,0H53.45c3.123,1.288,3.842,2.385,3.842,5.865V9.69h5.846c0-1.668,0-3.282,0-4.9a4.284,4.284,0,0,1,1.547-3.531A14.3,14.3,0,0,1,67.016,0h1.739c2.87.932,4.022,2.957,3.833,5.9-.081,1.257-.013,2.523-.013,3.8H78.38c0-1.628-.014-3.212,0-4.795a4.693,4.693,0,0,1,2.6-4.383c.374-.2.775-.349,1.164-.521ZM54.672,9.514c0-1.533.011-3.067,0-4.6a2.1,2.1,0,1,0-4.176,0q-.017,4.6,0,9.2a2.095,2.095,0,1,0,4.176,0c.014-1.533,0-3.066,0-4.6m-34.729.012h.006c0,1.591-.042,3.183.013,4.772a2.037,2.037,0,0,0,2.1,2.082,1.988,1.988,0,0,0,2.052-2.023c.043-3.239.024-6.478,0-9.717a1.931,1.931,0,0,0-1.243-1.83,2.083,2.083,0,0,0-2.92,2.031c-.05,1.56-.011,3.123-.011,4.685M39.4,9.579c0-1.533.01-3.066,0-4.6a2.1,2.1,0,1,0-4.181-.047q-.024,4.6,0,9.2a2.084,2.084,0,0,0,2.119,2.248,2.06,2.06,0,0,0,2.059-2.288c.015-1.5,0-3.008,0-4.512m26.371-.116c0,1.562-.014,3.124,0,4.686a2.047,2.047,0,0,0,2.028,2.23,2.076,2.076,0,0,0,2.147-2.218q.035-4.643,0-9.286a2.127,2.127,0,0,0-2.136-2.25,2.1,2.1,0,0,0-2.04,2.238c-.02,1.533,0,3.066,0,4.6m15.282.011h-.03c0,1.533-.019,3.066.006,4.6a2.1,2.1,0,1,0,4.189-.012c.023-3.037.014-6.074,0-9.111A3,3,0,0,0,85,3.856,2.064,2.064,0,0,0,82.8,2.649a1.979,1.979,0,0,0-1.74,1.882c-.06,1.646-.016,3.3-.016,4.944" transform="translate(19544 4370)" fill="#ff0001"/>
    <path id="Path_44833" data-name="Path 44833" d="M69.759,298.2c0,1.448.013,2.9,0,4.343-.014,1.189-.46,1.644-1.631,1.648q-4.387.017-8.774,0c-1.211,0-1.665-.474-1.668-1.7q-.01-4.344,0-8.687c0-1.223.46-1.688,1.678-1.692q4.344-.014,8.687,0c1.275,0,1.7.441,1.711,1.745.011,1.448,0,2.9,0,4.344m-2.684-3.409H60.363v6.706h6.712Z" transform="translate(19507.607 4145.767)" fill="#fff"/>
    <path id="Path_44834" data-name="Path 44834" d="M281.111,292.106c1.448,0,2.9-.009,4.343,0,1.211.01,1.668.474,1.671,1.7q.01,4.344,0,8.687c0,1.22-.464,1.689-1.678,1.693q-4.387.014-8.774,0c-1.141,0-1.611-.45-1.618-1.569q-.027-4.474,0-8.948c.007-1.115.482-1.552,1.625-1.562,1.477-.014,2.953,0,4.43,0m3.325,2.673h-6.695v6.74h6.695Z" transform="translate(19340.746 4145.766)" fill="#fff"/>
    <path id="Path_44835" data-name="Path 44835" d="M287.129,224.669c0,1.448.008,2.9,0,4.343-.009,1.168-.457,1.636-1.632,1.642q-4.43.023-8.861,0c-1.139-.007-1.572-.451-1.579-1.6q-.023-4.43,0-8.861c.006-1.163.478-1.6,1.668-1.6q4.387-.008,8.774,0c1.155,0,1.621.476,1.629,1.645.011,1.477,0,2.954,0,4.43m-9.4,3.3h6.722v-6.7H277.73Z" transform="translate(19340.744 4202.199)" fill="#fff"/>
    <path id="Path_44836" data-name="Path 44836" d="M63.754,157.157c-1.506,0-3.012.01-4.517,0-1.072-.01-1.552-.471-1.557-1.53q-.02-4.474,0-8.948c0-1.105.479-1.557,1.611-1.559q4.43-.011,8.86,0c1.135,0,1.591.434,1.6,1.569q.026,4.43,0,8.86c-.006,1.178-.46,1.6-1.651,1.61-1.448.009-2.9,0-4.343,0m3.291-9.36H60.362v6.7h6.684Z" transform="translate(19507.613 4258.604)" fill="#fff"/>
    <path id="Path_44837" data-name="Path 44837" d="M281.147,145.114c1.477,0,2.954-.009,4.43,0,1.064.009,1.541.472,1.546,1.538q.02,4.474,0,8.947c0,1.069-.479,1.546-1.537,1.55q-4.517.018-9.034,0a1.307,1.307,0,0,1-1.494-1.5q-.03-4.517,0-9.034c.007-1.074.476-1.5,1.573-1.5,1.506-.01,3.011,0,4.517,0m-3.394,9.357h6.69v-6.707h-6.69Z" transform="translate(19340.746 4258.604)" fill="#fff"/>
    <path id="Path_44838" data-name="Path 44838" d="M57.683,224.554c0-1.419-.006-2.838,0-4.257.006-1.236.454-1.7,1.656-1.7q4.387-.01,8.774,0c1.17,0,1.637.452,1.643,1.627q.022,4.387,0,8.774c-.006,1.236-.437,1.657-1.7,1.662q-4.343.018-8.687,0c-1.269-.006-1.687-.457-1.691-1.759,0-1.448,0-2.9,0-4.343m9.4-3.3H60.364v6.694h6.715Z" transform="translate(19507.604 4202.199)" fill="#fff"/>
    <path id="Path_44839" data-name="Path 44839" d="M142.245,298.178c0,1.477.01,2.954,0,4.431-.011,1.119-.463,1.572-1.6,1.577q-4.43.018-8.861,0c-1.12-.005-1.578-.479-1.581-1.6q-.012-4.431,0-8.861c0-1.161.46-1.616,1.646-1.621q4.387-.016,8.774,0c1.18,0,1.613.452,1.622,1.641.011,1.477,0,2.954,0,4.43m-9.387,3.337h6.717v-6.738h-6.717Z" transform="translate(19451.938 4145.769)" fill="#fff"/>
    <path id="Path_44840" data-name="Path 44840" d="M214.723,298.183c0,1.477.009,2.954,0,4.43-.009,1.072-.463,1.558-1.527,1.564q-4.517.025-9.034,0c-1.014-.007-1.472-.49-1.477-1.518q-.019-4.517,0-9.034c0-1.029.46-1.512,1.476-1.519q4.517-.03,9.034,0c1.065.006,1.52.491,1.528,1.563.012,1.506,0,3.011,0,4.517m-2.644-3.4h-6.718V301.5h6.718Z" transform="translate(19396.301 4145.775)" fill="#fff"/>
    <path id="Path_44841" data-name="Path 44841" d="M142.242,151.082c0,1.506.011,3.011,0,4.516-.01,1.086-.454,1.546-1.52,1.55q-4.516.017-9.033,0a1.306,1.306,0,0,1-1.486-1.5q-.017-4.516,0-9.033c0-1.025.467-1.5,1.48-1.5q4.56-.018,9.119,0a1.276,1.276,0,0,1,1.437,1.45c.019,1.505.005,3.011.006,4.516m-2.656-3.293h-6.711v6.679h6.711Z" transform="translate(19451.939 4258.609)" fill="#fff"/>
    <path id="Path_44842" data-name="Path 44842" d="M208.65,157.154c-1.477,0-2.953.01-4.43,0-1.079-.01-1.536-.455-1.54-1.529q-.017-4.516,0-9.033c0-1.021.468-1.47,1.5-1.474q4.516-.016,9.033,0c1.022,0,1.5.47,1.5,1.48q.019,4.516,0,9.033c0,1.059-.473,1.514-1.552,1.523-1.505.013-3.011,0-4.517,0m3.4-9.369h-6.691V154.5h6.691Z" transform="translate(19396.301 4258.607)" fill="#fff"/>
    <path id="Path_44843" data-name="Path 44843" d="M130.2,224.666c0-1.506-.008-3.011,0-4.517.008-1.073.468-1.556,1.522-1.56q4.517-.018,9.034,0c1.008,0,1.478.483,1.483,1.507q.02,4.517,0,9.034c0,1.034-.445,1.5-1.473,1.513q-4.516.034-9.034,0c-1.077-.007-1.523-.483-1.531-1.55-.012-1.477,0-2.953,0-4.43m2.667,3.294h6.7v-6.718h-6.7Z" transform="translate(19451.938 4202.206)" fill="#fff"/>
    <path id="Path_44844" data-name="Path 44844" d="M214.722,224.582c0,1.506.009,3.011,0,4.517-.008,1.065-.458,1.544-1.532,1.551q-4.516.029-9.033,0c-1.031-.008-1.469-.475-1.473-1.511q-.019-4.517,0-9.033c0-1.057.481-1.507,1.567-1.51q4.43-.014,8.86,0c1.162,0,1.606.463,1.612,1.648.008,1.447,0,2.9,0,4.343m-9.386,3.368h6.705v-6.681h-6.705Z" transform="translate(19396.301 4202.201)" fill="#fff"/>
  </g>
</svg>
