<svg xmlns="http://www.w3.org/2000/svg" width="85.529" height="98.499" viewBox="0 0 85.529 98.499">
  <g id="Group_145346" data-name="Group 145346" transform="translate(-20005.621 -4370.687)">
    <path id="Path_44851" data-name="Path 44851" d="M35.422,237.736a29.077,29.077,0,0,1-4.9-2.053,10.207,10.207,0,0,1-4.8-8.45c-.282-6.3-.026-12.553,1.981-18.623A42.754,42.754,0,0,1,39.2,190.456c4.15-3.876,9.217-4.281,14.151-1.439,10,5.758,20.077,5.752,30.076,0,4.991-2.871,10.036-2.475,14.212,1.514A42.172,42.172,0,0,1,111.1,220.987a59.642,59.642,0,0,1-.086,6.628,11,11,0,0,1-9.228,9.947,2.2,2.2,0,0,0-.429.173Zm32.969-3.848q15.661,0,31.323-.005a7.24,7.24,0,0,0,7.478-7.28c.043-1.57.022-3.141.01-4.712A38.672,38.672,0,0,0,94.716,193.1a7.441,7.441,0,0,0-3.592-1.938,7.67,7.67,0,0,0-5.863,1.219A32.028,32.028,0,0,1,64.2,196.814a31.483,31.483,0,0,1-13.134-4.64,7.076,7.076,0,0,0-8.741.65,38.741,38.741,0,0,0-11.54,18.945c-1.268,4.666-1.341,9.431-1.3,14.214.039,4.85,3.093,7.9,7.973,7.906q15.469,0,30.937,0" transform="translate(19980 4231.45)" fill="#ff0001"/>
    <path id="Path_44852" data-name="Path 44852" d="M120.148.687A24.816,24.816,0,1,1,95.276,25.445,24.892,24.892,0,0,1,120.148.687m.017,45.793A20.966,20.966,0,1,0,99.132,25.519,20.983,20.983,0,0,0,120.164,46.48" transform="translate(19928.244 4370)" fill="#fff"/>
  </g>
</svg>
