<svg xmlns="http://www.w3.org/2000/svg" width="103.385" height="101.041" viewBox="0 0 103.385 101.041">
  <g id="Group_145348" data-name="Group 145348" transform="translate(-20409.598 -4391.216)">
    <path id="Path_44856" data-name="Path 44856" d="M28.115,127.252c-.994-.174-1.757-.252-2.491-.444-4.757-1.245-7.8-4.287-8.756-9.077a10.953,10.953,0,0,1,4.821-11.841,11.089,11.089,0,0,1,12.689-.337c1.741,1.025,3.376,2.235,5.021,3.414a1.528,1.528,0,0,0,1.668.144c2.539-.917,3.512-2.46,3.01-5.231a15.625,15.625,0,0,1,.122-5.485,11.522,11.522,0,0,1,12.7-9.3c6.541.969,10.937,6.335,10.237,12.684a30.258,30.258,0,0,1-1.285,4.691c1.529-.842,3.087-1.779,4.716-2.566a8.794,8.794,0,0,1,3.007-.948,5.563,5.563,0,0,1,5.445,2.895c.765,1.255,1.444,2.563,2.142,3.859a5.973,5.973,0,0,1-2.473,8.572c-4.694,2.61-9.4,5.191-14.108,7.785a2.558,2.558,0,0,0-.948.782h1.1q14.365,0,28.731,0c3.244,0,5.583,1.664,6.3,4.483a8.524,8.524,0,0,1,.2,2.078q.018,15.026.005,30.052c0,4.177-2.4,6.55-6.609,6.551q-24.311.007-48.621,0c-4.189,0-6.6-2.393-6.6-6.563q-.016-10.717,0-21.434v-1.384c-2.435,1.342-4.651,2.628-6.931,3.787a8.573,8.573,0,0,1-3.006.952,5.5,5.5,0,0,1-5.459-2.852c-.842-1.381-1.615-2.807-2.357-4.244a5.9,5.9,0,0,1,2.339-8.025c1.707-1,3.456-1.922,5.4-3M77.6,129.938v36.981h1.225q7.183,0,14.367,0c2.71,0,3.681-.959,3.682-3.639q.005-14.861,0-29.723c0-2.586-1.027-3.613-3.611-3.617q-7.294-.01-14.588,0H77.6m-17.09-.2c-1.361.226-2.713.139-3.739.675-4.92,2.573-9.742,5.331-14.623,7.979a1.586,1.586,0,0,0-.939,1.637c.03,7.768.014,15.536.02,23.3,0,2.605.994,3.582,3.627,3.585q7.236.007,14.471,0c.389,0,.778-.033,1.184-.051Zm3.173,37.11H74.4V129.994H63.684ZM56.855,111.4a2.711,2.711,0,0,0,.606-.369,76.039,76.039,0,0,0,5.07-5.68,7.95,7.95,0,0,0,.541-9.049A8.06,8.06,0,0,0,54.92,91.9a8.169,8.169,0,0,0-7.275,5.286c-1.158,2.73-.443,5.557-.446,8.34a16.624,16.624,0,0,1,2.524-.365,1.384,1.384,0,0,0,1.353-.826c1.128-1.805,2.3-3.591,3.572-5.293a1.913,1.913,0,0,1,1.61-.538,1.729,1.729,0,0,1,1.073,1.179,2.6,2.6,0,0,1-.576,1.566c-1.1,1.684-2.26,3.329-3.235,4.752l3.334,5.4m-22.669,5.5c-1.811,0-3.83-.053-5.844.019-1.351.048-2.141-.346-2.235-1.356-.087-.925.562-1.617,1.879-1.7,2.016-.12,4.042-.076,6.062-.146a1.766,1.766,0,0,0,1.117-.382c.663-.673,1.224-1.447,1.885-2.254-1.348-.918-2.746-1.922-4.195-2.845a8.335,8.335,0,0,0-6.452-1.135,8.564,8.564,0,0,0-6.56,9.8,8.461,8.461,0,0,0,9.322,7.049c2.295-.3,4.569-.766,6.848-1.18a4.133,4.133,0,0,0,.859-.362L34.186,116.9m4.512,8.064c-4.851,2.67-9.56,5.243-14.248,7.852a2.848,2.848,0,0,0-1.228,4.211c.6,1.139,1.234,2.257,1.862,3.379,1.115,1.993,2.593,2.432,4.6,1.337q5.08-2.775,10.142-5.582c1.276-.7,2.545-1.419,3.863-2.154L38.7,124.966m19.339-10.65,5,9.059c4.911-2.713,9.714-5.335,14.482-8.02a2.76,2.76,0,0,0,1.1-3.827c-.625-1.247-1.324-2.458-2.008-3.675-1.084-1.925-2.567-2.35-4.526-1.281-2.58,1.408-5.148,2.839-7.721,4.259-2.084,1.15-4.169,2.3-6.325,3.484m-16.626,9.156,5,9.057,13.9-7.663-5-9.057-13.908,7.663m-1.735-2.587,14.4-7.939c-.718-1.261-1.32-2.482-2.076-3.6a2.62,2.62,0,0,0-3.448-.84q-4.872,2.589-9.663,5.326a2.712,2.712,0,0,0-1.062,3.66c.543,1.122,1.189,2.193,1.847,3.393" transform="translate(20393 4322.243)" fill="#ff0001"/>
    <path id="Path_44857" data-name="Path 44857" d="M204.3,51.587c1.4.071,2.8.095,4.19.231a1.9,1.9,0,0,0,1.8-.77c1.005-1.174,2.073-2.3,3.133-3.422,1.228-1.306,2.529-1,3.011.719.447,1.592.811,3.21,1.311,4.786a2.184,2.184,0,0,0,.971,1.165c1.466.763,3,1.4,4.492,2.109,1.617.766,1.717,2.1.228,3.088-1.347.9-2.7,1.8-4.086,2.626a1.764,1.764,0,0,0-.935,1.49c-.146,1.538-.258,3.087-.544,4.6a2.569,2.569,0,0,1-1.016,1.748,2.491,2.491,0,0,1-1.947-.5c-1.352-.952-2.573-2.087-3.891-3.09a1.686,1.686,0,0,0-1.166-.283c-1.6.257-3.179.6-4.768.906-.765.147-1.546.319-2.148-.4s-.331-1.442-.039-2.179c.582-1.47,1.192-2.93,1.7-4.426a2.02,2.02,0,0,0-.1-1.4c-.654-1.316-1.417-2.578-2.134-3.863-.426-.765-1.136-1.633-.406-2.41a6.707,6.707,0,0,1,2.219-1.036l.128.312m9.776-.088c-.868.937-1.646,1.711-2.344,2.552a2.508,2.508,0,0,1-2.434.929c-1.034-.121-2.084-.112-3.319-.169a34.509,34.509,0,0,1,1.767,3.266,3.282,3.282,0,0,1,.137,1.959,34.927,34.927,0,0,1-1.306,3.5c1.2-.242,2.207-.409,3.2-.657a2.7,2.7,0,0,1,2.736.655c.756.713,1.611,1.32,2.567,2.09a31.045,31.045,0,0,1,.467-3.59,3.537,3.537,0,0,1,1.075-1.764,32.022,32.022,0,0,1,3.094-2.06,34.931,34.931,0,0,1-3.356-1.6,3.285,3.285,0,0,1-1.271-1.5,34.723,34.723,0,0,1-1.008-3.611" transform="translate(20262.59 4351.956)" fill="#fff"/>
    <path id="Path_44858" data-name="Path 44858" d="M300.874,155.078a9.7,9.7,0,0,1,1.484,1.209c.776.978,1.425,2.058,2.212,3.026a2.124,2.124,0,0,0,1.24.706c1.236.171,2.493.2,3.739.3,1.619.131,2.193,1.367,1.243,2.708-.722,1.021-1.531,1.982-2.21,3.03a2.087,2.087,0,0,0-.273,1.377c.211,1.191.569,2.355.842,3.536.4,1.744-.575,2.668-2.263,2.148-1.433-.441-2.917-1.357-4.281-1.2-1.326.149-2.521,1.4-3.786,2.151-1.485.877-2.626.226-2.647-1.5a16.322,16.322,0,0,1,.034-2.536,3.061,3.061,0,0,0-1.559-3.308,15.317,15.317,0,0,1-2.033-1.694,1.527,1.527,0,0,1,.543-2.755,29.255,29.255,0,0,1,3.258-1.02,2.155,2.155,0,0,0,1.748-1.575,19.743,19.743,0,0,1,1.3-3.154,7.562,7.562,0,0,1,1.407-1.44m-4.148,9.315c2.331,1.28,3.018,3.165,2.584,5.7a5.021,5.021,0,0,1,6.282-.776c-1.361-2.439-.546-4.319,1.147-6.106a4.793,4.793,0,0,1-5.417-3.085c-.568,2.505-1.9,4.02-4.6,4.263" transform="translate(20198.936 4275.658)" fill="#fff"/>
    <path id="Path_44859" data-name="Path 44859" d="M299.8,36.829a7.806,7.806,0,1,1,7.813-7.781,7.788,7.788,0,0,1-7.813,7.781m-.036-3.1a4.707,4.707,0,1,0-4.684-4.7,4.707,4.707,0,0,0,4.684,4.7" transform="translate(20198.914 4370)" fill="#fff"/>
    <path id="Path_44860" data-name="Path 44860" d="M263.551,99.018c-.314,10.368-3.738,19.347-11.731,26.289-.111.1-.219.2-.334.289a1.564,1.564,0,0,1-2.267-.041,1.539,1.539,0,0,1,.207-2.254,69.03,69.03,0,0,0,5.07-5.511c4.157-5.521,5.7-11.936,5.949-18.73.02-.552-.023-1.11.044-1.655a1.531,1.531,0,0,1,3.055.068c.043.512.008,1.03.008,1.546" transform="translate(20229.338 4317.291)" fill="#fff"/>
    <path id="Path_44861" data-name="Path 44861" d="M332.8,83a8.887,8.887,0,0,1-1.3,1.179c-1.636,1.049-3.416,1.894-4.96,3.058a15.147,15.147,0,0,0-4.981,7.151,2.548,2.548,0,0,1-1.115,1.357,1.547,1.547,0,0,1-1.468-.309,2.328,2.328,0,0,1-.35-1.786,17.007,17.007,0,0,1,5.981-8.809,43.725,43.725,0,0,1,5.833-3.523c1.131-.61,2.3.108,2.362,1.684" transform="translate(20180.182 4327.798)" fill="#fff"/>
  </g>
</svg>
