<svg xmlns="http://www.w3.org/2000/svg" width="92.088" height="92.086" viewBox="0 0 92.088 92.086">
  <g id="Group_145347" data-name="Group 145347" transform="translate(-20806.657 -4357.868)">
    <path id="Path_44874" data-name="Path 44874" d="M44.016,92.753c-1.746-.233-3.5-.41-5.236-.709a44.894,44.894,0,0,1-24.8-12.982A45.241,45.241,0,0,1,1.491,55.349,46.044,46.044,0,0,1,90.027,31.075a43.809,43.809,0,0,1,2.561,12.079,7.466,7.466,0,0,0,.157.862v5.4c-.055.317-.122.633-.164.952-.219,1.661-.347,3.338-.659,4.981A44.958,44.958,0,0,1,79.445,79.061a44.9,44.9,0,0,1-24.8,12.983c-1.735.3-3.49.476-5.236.709ZM90.047,46.769A43.334,43.334,0,1,0,46.659,90.055,43.339,43.339,0,0,0,90.047,46.769" transform="translate(20806 4357.2)" fill="#ff0001"/>
    <path id="Path_44877" data-name="Path 44877" d="M119.273,157.589a36.137,36.137,0,0,1-17.3-4.807c-1.987-1.149-3.822-2.567-5.693-3.908a1.37,1.37,0,0,1-.427-2.025c.508-.646,1.229-.656,2.078-.1a75.689,75.689,0,0,0,6.92,4.472,33.077,33.077,0,0,0,21.643,3.086,33.947,33.947,0,0,0,22.324-14.448,33.369,33.369,0,0,0,5.969-16.9,34.393,34.393,0,0,0-5.974-22.373c-.617-.918-1.347-1.76-2.007-2.65-.637-.858-.594-1.627.093-2.133.632-.466,1.392-.29,2.026.474a37.406,37.406,0,0,1-20.3,60.372,35.237,35.237,0,0,1-9.357.935" transform="translate(20732.457 4283.682)" fill="#fff"/>
    <path id="Path_44878" data-name="Path 44878" d="M39.036,77.008C39.349,64.6,44.113,54.531,53.86,46.971A35.791,35.791,0,0,1,73.9,39.45a36.891,36.891,0,0,1,26.5,8.571,1.415,1.415,0,0,1,.471,2.026c-.508.685-1.3.758-2.13.083a35.614,35.614,0,0,0-9.784-5.763,34.7,34.7,0,0,0-41.1,12.74,33.373,33.373,0,0,0-5.943,16.908,34.419,34.419,0,0,0,6,22.365c.6.893,1.311,1.713,1.956,2.577s.632,1.613-.035,2.144c-.622.495-1.432.3-2.091-.494a37.315,37.315,0,0,1-8.272-18.543c-.259-1.713-.3-3.458-.438-5.055" transform="translate(20776.264 4327.219)" fill="#fff"/>
    <path id="Path_44879" data-name="Path 44879" d="M141.15,145.285a4.17,4.17,0,0,1-4.024-5.441,1.038,1.038,0,0,0-.347-1.228q-6.692-6.658-13.358-13.342a7.16,7.16,0,0,1-.561-.582,1.335,1.335,0,0,1,1.916-1.86c.208.17.389.373.58.564q6.61,6.612,13.21,13.235a1.207,1.207,0,0,0,1.452.4,3.98,3.98,0,0,1,4.391,1.47,1.159,1.159,0,0,0,1.353.5c4.4-.707,8.814-1.372,13.222-2.05.029,0,.06-.007.089-.01,1.308-.16,1.986.186,2.1,1.075s-.484,1.419-1.749,1.61c-4.439.672-8.876,1.358-13.316,2.027a1.111,1.111,0,0,0-1.051.858,4.076,4.076,0,0,1-3.91,2.773m1.47-4.245a1.5,1.5,0,1,0-1.42,1.529,1.481,1.481,0,0,0,1.42-1.529" transform="translate(20711.59 4262.841)" fill="#ff0001"/>
    <path id="Path_44880" data-name="Path 44880" d="M199.18,69.042c0-.929-.029-1.858.008-2.785a1.344,1.344,0,1,1,2.668.023q.048,2.7,0,5.392c-.016.969-.514,1.5-1.3,1.515-.821.019-1.337-.532-1.372-1.539-.03-.868-.006-1.737-.006-2.606Z" transform="translate(20652.189 4307.536)" fill="#fff"/>
    <path id="Path_44881" data-name="Path 44881" d="M69,201.819c-.869,0-1.738.023-2.605-.006-.986-.033-1.586-.576-1.57-1.362a1.373,1.373,0,0,1,1.524-1.313q2.694-.047,5.391,0c.966.017,1.492.521,1.505,1.313.014.821-.537,1.329-1.549,1.363-.9.03-1.8.006-2.7.006" transform="translate(20756.283 4203.441)" fill="#fff"/>
    <path id="Path_44882" data-name="Path 44882" d="M312.3,199.145c.928,0,1.858-.029,2.785.008a1.344,1.344,0,1,1-.023,2.669q-2.695.048-5.391,0c-.969-.016-1.5-.514-1.515-1.3-.019-.822.532-1.337,1.539-1.373.867-.03,1.737-.006,2.605-.006v0" transform="translate(20567.746 4203.427)" fill="#fff"/>
    <path id="Path_44883" data-name="Path 44883" d="M201.859,312.316c0,.928.031,1.858-.009,2.785a1.367,1.367,0,0,1-1.376,1.458,1.343,1.343,0,0,1-1.286-1.457c-.034-1.856-.036-3.715,0-5.571a1.28,1.28,0,0,1,1.325-1.393,1.293,1.293,0,0,1,1.328,1.392c.045.926.01,1.857.01,2.785h0" transform="translate(20652.195 4118.967)" fill="#fff"/>
    <path id="Path_44884" data-name="Path 44884" d="M133.745,82.884a3.21,3.21,0,0,1,.873.694,21.93,21.93,0,0,1,1.4,2.4,1.337,1.337,0,0,1-.463,1.878,1.393,1.393,0,0,1-1.859-.561c-.489-.786-.971-1.583-1.381-2.412-.489-.989.106-1.986,1.428-2" transform="translate(20704.119 4293.498)" fill="#fff"/>
    <path id="Path_44885" data-name="Path 44885" d="M264.22,84.321a5.862,5.862,0,0,1-.289.887c-.464.836-.923,1.678-1.44,2.482a1.271,1.271,0,0,1-1.731.485,1.2,1.2,0,0,1-.612-1.672,15.544,15.544,0,0,1,1.7-2.837,1.6,1.6,0,0,1,1.413-.348c.411.124.687.695.963,1" transform="translate(20605.051 4293.194)" fill="#fff"/>
    <path id="Path_44886" data-name="Path 44886" d="M136.275,305.679a6.864,6.864,0,0,1-.328.964c-.431.786-.869,1.57-1.344,2.329a1.357,1.357,0,0,1-1.855.546,1.311,1.311,0,0,1-.5-1.795c.45-.876.956-1.726,1.482-2.559a1.159,1.159,0,0,1,1.56-.5c.415.213.69.7.984,1.014" transform="translate(20704.172 4121.763)" fill="#fff"/>
    <path id="Path_44887" data-name="Path 44887" d="M264.8,308.7c-.443.52-.714,1.125-1.114,1.229a1.727,1.727,0,0,1-1.493-.391,11.077,11.077,0,0,1-1.607-2.78,1.672,1.672,0,0,1,.379-1.482c.288-.27,1.243-.35,1.424-.125.867,1.072,1.572,2.277,2.411,3.55" transform="translate(20604.641 4121.383)" fill="#fff"/>
    <path id="Path_44888" data-name="Path 44888" d="M87.971,134.5c0,1.22-.972,1.868-1.9,1.416a24.525,24.525,0,0,1-2.633-1.529,1.214,1.214,0,0,1-.418-1.73,1.2,1.2,0,0,1,1.688-.558,22.356,22.356,0,0,1,2.707,1.576,2.332,2.332,0,0,1,.558.824" transform="translate(20742.338 4255.479)" fill="#fff"/>
    <path id="Path_44889" data-name="Path 44889" d="M309.761,133.742a4.083,4.083,0,0,1-.784.889,22.325,22.325,0,0,1-2.242,1.312,1.389,1.389,0,0,1-1.9-.389,1.354,1.354,0,0,1,.481-1.874,25.138,25.138,0,0,1,2.485-1.43c.985-.482,1.977.143,1.961,1.491" transform="translate(20570.471 4255.373)" fill="#fff"/>
    <path id="Path_44890" data-name="Path 44890" d="M84.176,264.717a5.837,5.837,0,0,1-1.257-1.1,1.086,1.086,0,0,1,.361-1.512,18.328,18.328,0,0,1,2.876-1.631,1.553,1.553,0,0,1,1.4.376c.27.316.376,1.247.158,1.425-1.068.874-2.267,1.587-3.543,2.439" transform="translate(20742.391 4155.937)" fill="#fff"/>
    <path id="Path_44891" data-name="Path 44891" d="M305.686,259.669a5.709,5.709,0,0,1,.892.282c.836.464,1.679.921,2.48,1.442a1.291,1.291,0,0,1,.475,1.8,1.314,1.314,0,0,1-1.793.5c-.873-.456-1.725-.96-2.557-1.487a1.16,1.16,0,0,1-.5-1.56c.213-.415.7-.691,1-.977" transform="translate(20570.539 4156.522)" fill="#fff"/>
  </g>
</svg>
