<svg xmlns="http://www.w3.org/2000/svg" width="25.231" height="25.227" viewBox="0 0 25.231 25.227">
  <path id="phone_icon" d="M24,6.24C24,13.88,13.87,24,6.24,24a6.144,6.144,0,0,1-4.38-1.78l-1-1.15a3.082,3.082,0,0,1,.05-4.33c.03-.03,2.44-1.88,2.44-1.88a3.106,3.106,0,0,1,4.28,0l1.46,1.17a12.8,12.8,0,0,0,6.93-6.95L14.86,7.62a3.086,3.086,0,0,1,0-4.28S16.71.93,16.74.9a3.1,3.1,0,0,1,4.38,0l1.05.91A6.145,6.145,0,0,1,24,6.23Z" transform="matrix(-0.052, 0.999, -0.999, -0.052, 25.223, 1.26)" fill="red"/>
</svg>
