<svg id="youtubeIcn" xmlns="http://www.w3.org/2000/svg" width="30.965" height="21.676" viewBox="0 0 30.965 21.676">
  <path id="Path_44964" data-name="Path 44964" d="M30.317,3.385A3.878,3.878,0,0,0,27.58.647C25.166,0,15.482,0,15.482,0S5.8,0,3.385.647A3.878,3.878,0,0,0,.647,3.385,40.268,40.268,0,0,0,0,10.838a40.268,40.268,0,0,0,.647,7.453,3.877,3.877,0,0,0,2.738,2.737c2.414.647,12.1.647,12.1.647s9.684,0,12.1-.647a3.877,3.877,0,0,0,2.738-2.737,40.266,40.266,0,0,0,.647-7.453A40.505,40.505,0,0,0,30.317,3.385Z" transform="translate(0 0)" fill="red"/>
  <path id="Path_44965" data-name="Path 44965" d="M65.3,41.952l8.045-4.644L65.3,32.663Z" transform="translate(-52.913 -26.469)" fill="#fff"/>
</svg>
