<svg xmlns="http://www.w3.org/2000/svg" width="84.286" height="84.286" viewBox="0 0 84.286 84.286">
  <g id="Group_145373" data-name="Group 145373" transform="translate(-9457 -4569)">
    <path id="Path_44909" data-name="Path 44909" d="M84.9,47.647q-11.947.007-23.894.012-16.956,0-33.912,0h-1.07V29.778a17.4,17.4,0,0,1-8.6-2.912c-.644-.411-1.671-.222-2.634-.319V30.81H.783V0H14.749V2.615a5.754,5.754,0,0,0,3.678-.373c1.664-.774,3.352-1.5,5.03-2.243H43.665a1.133,1.133,0,0,0,.288.13,12.62,12.62,0,0,1,7.364,3.791c2.228,2.257,4.493,4.477,6.716,6.739a1.723,1.723,0,0,0,1.363.553c5.414-.018,10.827-.008,16.241-.012,3.089,0,6.178-.019,9.267-.029ZM39.763,7.817c.946.972,1.877,1.971,2.863,2.912a1.705,1.705,0,0,0,1.05.453c3.394.034,6.788.021,10.182.017a6.7,6.7,0,0,0,.714-.088c-1.778-1.767-3.471-3.4-5.111-5.09A10.286,10.286,0,0,0,41.671,2.79c-5.036.034-10.074.075-15.109-.022a10.363,10.363,0,0,0-5.786,1.414,8.724,8.724,0,0,1-5.557,1.362,1.282,1.282,0,0,0-.372.072V23.829c.684,0,1.315.046,1.937-.011a3.645,3.645,0,0,1,2.284.669,24.04,24.04,0,0,0,3.718,1.869,21.048,21.048,0,0,0,3.243.7c0-2.289.018-4.366-.026-6.441,0-.225-.324-.5-.562-.655-1.02-.655-2.064-1.271-3.176-1.949l1.859-2.287a7.777,7.777,0,0,0,5.706,2.292A8.141,8.141,0,0,0,35.353,15.4c2.72,2.724,5.384,5.4,8.057,8.067a2.825,2.825,0,1,0,3.959-3.988q-1.558-1.578-3.134-3.137Q40.979,13.1,37.7,9.852l2.062-2.035M28.873,44.8h53.17V14.084H45.877c.842.816,1.554,1.455,2.2,2.154a1.767,1.767,0,0,0,1.437.588Q60.4,16.8,71.283,16.813h1.011a6.457,6.457,0,0,0,1.684,5.419,6.371,6.371,0,0,0,5.288,1.581V35c-4.827-.129-7.174,2.246-7.031,6.992H38.6a6.264,6.264,0,0,0-1.588-5.288,6.491,6.491,0,0,0-5.319-1.666V23.815c2.3.177,4.325-.3,5.722-2.136l-2.424-2.428a10.679,10.679,0,0,1-6.114,1.561Zm5.595-12.469c.249.074.431.132.615.183A8.209,8.209,0,0,1,41.134,38.5c.187.658.452.772,1.055.771q13.264-.026,26.527-.012h.849a8.631,8.631,0,0,1,6.883-6.936V26.544a8.612,8.612,0,0,1-6.878-6.867H50.847a6.145,6.145,0,0,1-.1,4.481,7.612,7.612,0,0,1,5.288-1.692,6.883,6.883,0,0,1,4.911,2.492,7.085,7.085,0,0,1-8.414,10.99,6.95,6.95,0,0,1-3.75-4.243,7.329,7.329,0,0,1,.568-5.742c-3.308,2.281-6.41,1.338-8.3-.9-.454-.535-.883-1.092-1.361-1.686a8.971,8.971,0,0,1-5.215,3.16ZM11.92,2.864H3.645V28.01H11.92ZM59.648,29.453a4.148,4.148,0,0,0-4.138-4.2,4.2,4.2,0,0,0-4.262,4.178,4.255,4.255,0,0,0,4.243,4.223,4.2,4.2,0,0,0,4.157-4.2" transform="translate(9456.381 4569)" fill="#ff0001"/>
    <path id="Path_44910" data-name="Path 44910" d="M128.8,295.048H114.815v-2.1c-1,.387-1.876.674-2.707,1.053a12.658,12.658,0,0,1-5.5,1.071c-5.857-.058-11.715-.045-17.572-.007a9.084,9.084,0,0,1-4.9-1.352q-12.4-7.47-24.842-14.88A5.607,5.607,0,1,1,64.688,269c4.583,2.445,9.143,4.932,13.713,7.4.166.089.336.171.57.289.91-2.374,2.837-3.3,5.13-3.881,4.82-1.221,9.6-2.6,14.416-3.836a21.472,21.472,0,0,1,4.047-.53c1.5-.088,3.011.018,4.515-.03a7.952,7.952,0,0,1,4.66,1.306c.94.6,1.914,1.148,3.017,1.805v-4.568H128.8ZM101.118,279.92c-5.318,1.394-10.5,2.862-15.736,4.083-3.076.717-5.469-.86-6.539-3.828a1.285,1.285,0,0,0-.552-.632q-7.423-4.036-14.865-8.034a2.8,2.8,0,1,0-2.759,4.869q12.666,7.6,25.36,15.144a5.342,5.342,0,0,0,2.559.7c6.433.057,12.867.039,19.3.017a5.341,5.341,0,0,0,1.76-.314c1.542-.556,3.051-1.2,4.586-1.776a.755.755,0,0,0,.567-.841c-.017-4.627,0-9.253-.032-13.88a1.244,1.244,0,0,0-.5-.889q-2.18-1.387-4.432-2.658a3.782,3.782,0,0,0-1.677-.6,41.568,41.568,0,0,0-7.531.161c-3.514.612-6.941,1.728-10.4,2.639-2.22.584-4.439,1.169-6.651,1.785a2.833,2.833,0,0,0-2.051,3.435,2.674,2.674,0,0,0,3.287,1.967c3.317-.813,6.614-1.706,9.918-2.571,1.868-.489,3.734-.988,5.662-1.5l.728,2.725m24.82-10.048h-8.3v22.335h8.3Z" transform="translate(9412.49 4358.073)" fill="#fff"/>
    <rect id="Rectangle_3513" data-name="Rectangle 3513" width="84.286" height="84.286" transform="translate(9457 4569)" fill="none"/>
  </g>
</svg>
