<svg xmlns="http://www.w3.org/2000/svg" width="112" height="112" viewBox="0 0 112 112">
  <g id="Group_145375" data-name="Group 145375" transform="translate(-10532.82 -2353.82)">
    <path id="Path_44941" data-name="Path 44941" d="M101.755,37.776c.051,1.123.115,2.246.148,3.37a1.727,1.727,0,0,0,1.417,1.8c1.65.414,3.308.8,4.952,1.241a17.78,17.78,0,0,1,2.47.824c2.984,1.293,4.171,3.719,3.2,6.807a35.59,35.59,0,0,1-1.938,4.6c-1.763,3.692-1.747,3.771,1.487,6.343a33.2,33.2,0,0,1,3.519,3.073c2.484,2.625,2.5,5.511-.019,8.112a60.749,60.749,0,0,1-4.609,3.975c-1.883,1.587-1.96,1.877-.949,4.159.777,1.755,1.682,3.463,2.323,5.266,1.317,3.7.065,6.348-3.642,7.647-1.838.644-3.777,1-5.671,1.485-2.333.6-2.5.769-2.606,3.146-.083,1.884-.016,3.778-.152,5.657-.272,3.762-2.608,5.934-6.041,5.673a28.228,28.228,0,0,1-3.116-.468q-2.029-.385-4.04-.863a2.054,2.054,0,0,0-2.583,1.222c-.666,1.368-1.305,2.753-2.044,4.082a18.454,18.454,0,0,1-2.011,3.084,4.815,4.815,0,0,1-6,1.317,20.838,20.838,0,0,1-3.216-2.006c-1.037-.73-1.986-1.583-3.008-2.336-1.673-1.232-2.115-1.235-3.76-.023-1.022.753-1.974,1.6-3.007,2.338a20.96,20.96,0,0,1-3.113,1.975,4.872,4.872,0,0,1-6.259-1.406,27.3,27.3,0,0,1-2.318-3.788c-.6-1.073-1.124-2.192-1.662-3.3A2.008,2.008,0,0,0,47,109.617c-1.734.386-3.465.79-5.215,1.091a12.045,12.045,0,0,1-3.024.191A4.869,4.869,0,0,1,34,106.6a34.5,34.5,0,0,1-.329-5.416c-.024-4.092.006-4.077-4-5.025a41.022,41.022,0,0,1-4.5-1.229c-3.447-1.244-4.748-3.869-3.556-7.344.656-1.911,1.618-3.716,2.437-5.571.97-2.2.889-2.522-.949-4.072-1.525-1.285-3.148-2.474-4.539-3.891-2.657-2.707-2.655-5.636.011-8.344,1.419-1.441,3.074-2.648,4.624-3.96,1.71-1.448,1.809-1.845.9-3.908-.789-1.789-1.721-3.525-2.378-5.361-1.348-3.766-.1-6.408,3.672-7.716,1.84-.639,3.779-.992,5.673-1.479,2.268-.584,2.448-.769,2.55-3.079.084-1.884.02-3.777.151-5.657.283-4.067,2.7-6.067,6.747-5.656.827.084,1.649.24,2.466.4,1.351.268,2.7.551,4.041.86a2,2,0,0,0,2.5-1.18c.525-1.074,1.05-2.149,1.613-3.2A29.977,29.977,0,0,1,53,22.471c1.905-2.682,4.589-3.28,7.431-1.624A30.772,30.772,0,0,1,64.14,23.5c3.548,2.85,3.626,2.851,7.146.026a31.529,31.529,0,0,1,3.7-2.668c2.87-1.685,5.6-1.071,7.507,1.664a34.155,34.155,0,0,1,1.969,3.5c.546,1.022,1.052,2.066,1.574,3.1a1.857,1.857,0,0,0,2.258,1.05c1.773-.374,3.541-.775,5.323-1.107a12.228,12.228,0,0,1,2.592-.253c3.237.1,5.169,2.082,5.481,5.583.1,1.119.107,2.246.157,3.37l-.091,0m-4.69.248.08-.006c0-.508.007-1.016,0-1.525-.01-.544,0-1.092-.06-1.631-.148-1.347-.317-1.541-1.64-1.35-1.539.223-3.06.577-4.582.908-5.285,1.149-7.483.071-9.85-4.815-.695-1.434-1.442-2.842-2.184-4.253a1.036,1.036,0,0,0-1.771-.376C75.706,26.016,74.35,27.048,73,28.089c-3.97,3.065-6.636,3.062-10.568-.019-.143-.112-.279-.233-.423-.343-1.092-.842-2.158-1.719-3.283-2.513-1.29-.911-1.576-.859-2.341.536-.922,1.683-1.7,3.447-2.621,5.13-1.892,3.451-4.041,4.469-7.92,3.771-1.747-.314-3.468-.766-5.213-1.09-1.89-.351-2.249-.049-2.3,1.873-.044,1.669.013,3.341-.052,5.008-.166,4.228-1.67,6.125-5.721,7.236-1.292.354-2.611.608-3.914.923-3.243.783-3.288.9-1.927,3.931.8,1.782,1.646,3.553,2.3,5.39A5.587,5.587,0,0,1,27.6,63.939a23.949,23.949,0,0,1-1.914,1.774c-1.134.963-2.328,1.856-3.435,2.847-1.285,1.149-1.289,1.522.022,2.679,1.468,1.3,3.058,2.455,4.5,3.775,2.736,2.5,3.221,4.668,1.839,8.113-.633,1.579-1.426,3.092-2.124,4.646-1.061,2.364-.941,2.6,1.552,3.243,1.963.507,3.956.922,5.882,1.544a5.754,5.754,0,0,1,4.188,5.293c.14,1.477.136,2.968.189,4.453.032.906.034,1.814.076,2.72.045.964.479,1.482,1.526,1.268,1.561-.318,3.128-.61,4.687-.938,5.338-1.121,7.5-.066,9.848,4.818.6,1.241,1.182,2.49,1.844,3.7.857,1.56,1.188,1.627,2.653.563,1.115-.81,2.185-1.682,3.263-2.541,4.2-3.344,6.852-3.338,11.078.018,1.136.9,2.264,1.819,3.447,2.658,1.285.912,1.575.855,2.341-.542.923-1.683,1.7-3.447,2.621-5.129,1.895-3.452,4.058-4.475,7.921-3.772,1.782.324,3.538.788,5.321,1.1s2.127.034,2.185-1.777c.056-1.741-.013-3.486.063-5.226.183-4.147,1.705-6.035,5.716-7.128,1.467-.4,2.961-.7,4.437-1.074,2.594-.654,2.686-.863,1.624-3.284-.857-1.955-1.8-3.882-2.52-5.887a5.552,5.552,0,0,1,1.42-6.014,24.416,24.416,0,0,1,1.913-1.774c1.135-.962,2.331-1.853,3.44-2.843,1.272-1.135,1.25-1.52-.014-2.7-.557-.518-1.163-.984-1.748-1.472-1-.836-2.032-1.643-3.005-2.512a6.193,6.193,0,0,1-1.718-7.585c.68-1.639,1.473-3.23,2.2-4.849,1.12-2.5,1.025-2.67-1.616-3.367-2.063-.545-4.152-1.021-6.17-1.706a5.509,5.509,0,0,1-3.77-4.892c-.173-1.364-.2-2.745-.3-4.119" transform="translate(10521.203 2339.822)" fill="#ff0001"/>
    <path id="Path_44943" data-name="Path 44943" d="M131.311,165.328c-.766-.608-1.643-.979-1.922-1.614a4.164,4.164,0,0,1,.1-2.337c.08-.368.537-.663.845-.97Q145.961,144.77,161.6,129.14c1.486-1.486,2.89-1.7,3.948-.607,1.027,1.061.8,2.432-.636,3.873q-15.67,15.672-31.355,31.329a17.59,17.59,0,0,1-2.242,1.593" transform="translate(10441.31 2263.307)" fill="#fff"/>
    <path id="Path_44944" data-name="Path 44944" d="M140.746,131.823a8.136,8.136,0,1,1-8.116-8.1,8.163,8.163,0,0,1,8.116,8.1m-11.589.008a3.5,3.5,0,0,0,3.4,3.526,3.567,3.567,0,0,0,3.554-3.514,3.5,3.5,0,0,0-3.487-3.44,3.409,3.409,0,0,0-3.466,3.427" transform="translate(10444.696 2266.23)" fill="#fff"/>
    <path id="Path_44945" data-name="Path 44945" d="M204.361,211.72a8.135,8.135,0,1,1,8.163,8.166,8.154,8.154,0,0,1-8.163-8.166m8.167,3.482a3.426,3.426,0,0,0,3.42-3.475,3.5,3.5,0,0,0-3.444-3.481A3.577,3.577,0,0,0,209,211.808a3.5,3.5,0,0,0,3.531,3.394" transform="translate(10388.057 2209.586)" fill="#fff"/>
    <rect id="Rectangle_3517" data-name="Rectangle 3517" width="112" height="112" transform="translate(10532.82 2353.82)" fill="none"/>
  </g>
</svg>
