<svg xmlns="http://www.w3.org/2000/svg" width="96" height="96" viewBox="0 0 96 96">
  <g id="Group_145374" data-name="Group 145374" transform="translate(-9018.464 -4568.463)">
    <path id="Path_44893" data-name="Path 44893" d="M14.808,230.14a.911.911,0,0,0-.212-.158,4.686,4.686,0,0,1-3.542-5.006q-.008-11.894,0-23.787v-2.671c-1.3,0-2.554.024-3.8-.006a3.009,3.009,0,0,1-3.088-2.735,3.824,3.824,0,0,1,.37-1.951c2.019-4.125,4.1-8.22,6.155-12.328a3.224,3.224,0,0,1,3.116-1.917q36.823.005,73.647,0a3.223,3.223,0,0,1,3.114,1.921c2.052,4.108,4.136,8.2,6.168,12.319a3.131,3.131,0,0,1-2.923,4.7c-1.166.019-2.333,0-3.619,0v1.184c0,8.145-.072,16.291.038,24.435.04,2.955-.917,5.011-3.79,6Zm34.174-41.732-.2-.041c-1.308,2.611-2.661,5.2-3.907,7.839a3.737,3.737,0,0,1-3.8,2.337c-8.562-.049-17.125-.022-25.688-.021H14.219v1.03q0,12.631,0,25.263c0,1.7.479,2.17,2.22,2.17H48.982Zm3.3,38.577H84.847c1.7,0,2.173-.483,2.173-2.218q0-12.586,0-25.172v-1.072H85.8c-8.625,0-17.25-.015-25.875.013a3.451,3.451,0,0,1-3.452-2.133c-.913-1.92-1.9-3.8-2.853-5.7l-1.181-2.349-.165.05Zm-44.956-31.7a3.243,3.243,0,0,0,.409.07q16.695.006,33.39-.021a1.317,1.317,0,0,0,.928-.648c1.908-3.732,3.773-7.485,5.646-11.235.1-.208.175-.432.271-.67-.164-.019-.255-.04-.347-.04q-16.695,0-33.39-.018a.934.934,0,0,0-.955.652q-2.591,5.218-5.213,10.421c-.232.463-.46.927-.738,1.489m45.9-12.547c.179.394.293.672.427.94,1.808,3.61,3.638,7.209,5.412,10.836a1.321,1.321,0,0,0,1.4.867q16.231-.038,32.463-.02c.294,0,.588-.028.977-.048-.155-.336-.261-.584-.382-.826-1.834-3.667-3.685-7.325-5.489-11.007a1.187,1.187,0,0,0-1.267-.756q-12.428.031-24.857.014Z" transform="translate(9015.855 4433.811)" fill="#ff0001"/>
    <path id="Path_44894" data-name="Path 44894" d="M149.924,17.773a4.8,4.8,0,0,1-1.53,3.257c-1.765,1.772-3.483,3.593-5.286,5.326a2.427,2.427,0,0,0-.723,2.415q.694,3.961,1.308,7.936a4.273,4.273,0,0,1-1.84,4.358,4.045,4.045,0,0,1-4.546.251c-2.312-1.239-4.626-2.478-6.9-3.777a1.92,1.92,0,0,0-2.142.019c-2.171,1.239-4.392,2.389-6.575,3.608a4.208,4.208,0,0,1-4.8-.069,4.372,4.372,0,0,1-1.87-4.606c.428-2.553.81-5.114,1.276-7.66a2.568,2.568,0,0,0-.8-2.567c-1.889-1.821-3.762-3.668-5.524-5.609a4.485,4.485,0,0,1,2.529-7.515c1.059-.211,2.134-.337,3.2-.5,1.466-.219,2.928-.475,4.4-.636a2.1,2.1,0,0,0,1.868-1.39c1.049-2.332,2.206-4.615,3.275-6.938a4.366,4.366,0,0,1,8.2.021c1.091,2.381,2.25,4.731,3.357,7.1a1.784,1.784,0,0,0,1.531,1.134c2.48.326,4.95.726,7.422,1.1a4.584,4.584,0,0,1,4.169,4.729M129.367,33.788a20.92,20.92,0,0,1,2.373.9c2.268,1.189,4.488,2.47,6.764,3.643a1.727,1.727,0,0,0,1.488.079,1.919,1.919,0,0,0,.5-1.518c-.348-2.564-.769-5.119-1.235-7.664a5.191,5.191,0,0,1,1.547-5.049q2.738-2.63,5.322-5.416a2.012,2.012,0,0,0,.467-1.614,1.835,1.835,0,0,0-1.281-.94q-3.644-.663-7.323-1.128a4.72,4.72,0,0,1-4-2.864c-1.112-2.4-2.235-4.806-3.429-7.17-.228-.453-.809-1.012-1.222-1.008s-.98.572-1.209,1.028c-1.2,2.394-2.328,4.828-3.47,7.254a4.523,4.523,0,0,1-3.607,2.712q-3.756.566-7.512,1.121c-.668.1-1.281.232-1.526.983a1.593,1.593,0,0,0,.591,1.72c1.784,1.8,3.531,3.631,5.345,5.4a5.114,5.114,0,0,1,1.494,4.893c-.456,2.579-.9,5.162-1.251,7.756a1.914,1.914,0,0,0,.5,1.516,1.728,1.728,0,0,0,1.487-.081c2.3-1.187,4.551-2.481,6.848-3.682a19.376,19.376,0,0,1,2.348-.872" transform="translate(8937.138 4568.357)" fill="#fff"/>
    <path id="Path_44895" data-name="Path 44895" d="M28.685,96.155c.175-1.1.424-2.434.578-3.779a1.592,1.592,0,0,0-.347-1.109c-.734-.832-1.558-1.584-2.339-2.375a2.981,2.981,0,0,1-.843-3.212,2.936,2.936,0,0,1,2.57-2.095c1.008-.145,2.009-.374,3.022-.448a1.3,1.3,0,0,0,1.215-.922c.45-1.014.938-2.011,1.424-3.008a2.959,2.959,0,0,1,5.418.029c.507,1.055.973,2.133,1.538,3.157a1.567,1.567,0,0,0,.937.679c1.115.242,2.259.344,3.38.562a3.016,3.016,0,0,1,1.721,5.018c-.812.927-1.761,1.736-2.572,2.664a1.721,1.721,0,0,0-.353,1.2c.126,1.131.384,2.246.569,3.371a2.984,2.984,0,0,1-1.213,3.1,2.821,2.821,0,0,1-3.226.145c-.894-.488-1.819-.927-2.673-1.477a1.385,1.385,0,0,0-1.685.016c-.891.551-1.822,1.042-2.761,1.508-2.134,1.058-4.413-.4-4.359-3.016m7.971-15.237c-.556,1.164-1.055,2.141-1.494,3.143a3.326,3.326,0,0,1-2.805,2.112c-1.116.144-2.226.333-3.558.535l2.688,2.654a3.288,3.288,0,0,1,.993,3.195c-.234,1.149-.375,2.317-.583,3.645,1.15-.624,2.137-1.124,3.089-1.683a3.092,3.092,0,0,1,3.329-.016c1.016.579,2.053,1.121,3.2,1.742-.188-1.018-.29-1.935-.533-2.814a4.139,4.139,0,0,1,1.458-4.7c.693-.569,1.276-1.272,2.032-2.038-1.329-.2-2.419-.379-3.515-.52a3.306,3.306,0,0,1-2.8-2.117c-.435-1.005-.942-1.979-1.5-3.137" transform="translate(8999.733 4510.68)" fill="#fff"/>
    <path id="Path_44896" data-name="Path 44896" d="M271.963,96.29c.189-1.162.447-2.526.611-3.9a1.578,1.578,0,0,0-.34-1.109c-.757-.853-1.606-1.624-2.4-2.441a2.986,2.986,0,0,1-.763-3.236,2.858,2.858,0,0,1,2.441-2c1.068-.162,2.131-.379,3.205-.481a1.179,1.179,0,0,0,1.082-.822c.434-.987.925-1.948,1.377-2.927a2.982,2.982,0,0,1,5.583.022c.457,1.01.917,2.024,1.459,2.989a1.579,1.579,0,0,0,.937.683c1.114.242,2.259.345,3.38.562a3.008,3.008,0,0,1,1.733,5.009c-.832.951-1.791,1.791-2.635,2.733a1.462,1.462,0,0,0-.306,1.031c.125,1.069.341,2.129.535,3.19a3.13,3.13,0,0,1-1.158,3.38,2.953,2.953,0,0,1-3.474.028c-.854-.495-1.748-.924-2.588-1.44a1.177,1.177,0,0,0-1.36.007c-.988.572-1.983,1.137-3.01,1.634a3,3,0,0,1-4.3-2.914m15.8-9.333-.229-.3c-.977-.144-1.95-.326-2.932-.422a3.544,3.544,0,0,1-3.238-2.362c-.376-.953-.879-1.856-1.408-2.955-.59,1.233-1.1,2.279-1.592,3.33a3.067,3.067,0,0,1-2.468,1.864c-1.2.174-2.4.379-3.9.619,1.024.96,1.846,1.745,2.683,2.513a3.412,3.412,0,0,1,1.09,3.432c-.223,1.1-.358,2.212-.562,3.509,1.037-.556,1.911-.951,2.7-1.467a3.514,3.514,0,0,1,4.155.02c.831.529,1.733.948,2.741,1.491-.233-1.322-.38-2.453-.641-3.557a3.319,3.319,0,0,1,1.086-3.423c.831-.77,1.674-1.527,2.512-2.289" transform="translate(8816.6 4510.68)" fill="#fff"/>
    <path id="Path_44897" data-name="Path 44897" d="M235.254,2.313a3.4,3.4,0,0,1-.183.639c-.525,1.077-1.042,2.16-1.617,3.211a1.57,1.57,0,0,1-2.807-1.407c.5-1.09,1.044-2.159,1.61-3.215A1.469,1.469,0,0,1,234.05.756a1.631,1.631,0,0,1,1.2,1.556" transform="translate(8845.496 4568.456)" fill="#ff0001"/>
    <path id="Path_44898" data-name="Path 44898" d="M139.429,5.34a6.788,6.788,0,0,1-1.342,1.4,1.279,1.279,0,0,1-1.774-.515,38.576,38.576,0,0,1-1.835-3.7,1.345,1.345,0,0,1,.632-1.673,1.248,1.248,0,0,1,1.771.065c.915,1.355,1.648,2.833,2.548,4.427" transform="translate(8917.836 4568.588)" fill="#ff0001"/>
    <path id="Path_44899" data-name="Path 44899" d="M260.911,21.605a5.283,5.283,0,0,1-.551,1.15,20.3,20.3,0,0,1-1.762,1.77,1.548,1.548,0,0,1-2.172-.07,1.494,1.494,0,0,1-.066-2.095,9.962,9.962,0,0,1,1.852-1.8,2.019,2.019,0,0,1,1.622-.17c.451.178.728.8,1.078,1.215" transform="translate(8826.32 4553.703)" fill="#ff0001"/>
    <path id="Path_44900" data-name="Path 44900" d="M113.594,23.184c-.257.331-.5.915-.923,1.113a1.813,1.813,0,0,1-1.535-.035,10.644,10.644,0,0,1-2.039-1.989,1.366,1.366,0,0,1,.116-1.863,1.326,1.326,0,0,1,1.824-.365,19,19,0,0,1,2.3,2.236c.148.156.139.461.257.9" transform="translate(8937.1 4554.063)" fill="#ff0001"/>
    <rect id="Rectangle_3510" data-name="Rectangle 3510" width="96" height="96" transform="translate(9018.464 4568.463)" fill="none"/>
  </g>
</svg>
