<svg xmlns="http://www.w3.org/2000/svg" width="101.91" height="102.094" viewBox="0 0 101.91 102.094">
  <g id="Group_145370" data-name="Group 145370" transform="translate(-10792 -4606)">
    <path id="Path_44934" data-name="Path 44934" d="M37.415,0c.667.182,1.348.325,2,.552A10.336,10.336,0,0,1,46.239,7.64a1.043,1.043,0,0,0,1.234.9c1.757-.045,3.515-.027,5.273-.011,1.676.015,2.4.759,2.428,2.449.009.557,0,1.114,0,1.786,2.212,0,4.325-.035,6.436.008A10.677,10.677,0,0,1,72.186,23.586q.02,12.461,0,24.923a3.8,3.8,0,0,1-.147,1.079A2.029,2.029,0,0,1,70,51.034a1.966,1.966,0,0,1-1.929-1.45,5.2,5.2,0,0,1-.154-1.476c-.009-8.009-.1-16.019.034-24.025a6.661,6.661,0,0,0-7.15-7.1c-1.816.082-3.639.014-5.627.014,0,.625,0,1.174,0,1.722-.026,4.146-2.661,6.8-6.777,6.8q-12.338.008-24.675,0a6.412,6.412,0,0,1-6.757-6.753c-.005-.554,0-1.108,0-1.6a68.342,68.342,0,0,0-7.744.061c-2.821.328-4.815,3-4.981,6.03-.02.365-.012.731-.012,1.1q0,26.867,0,53.734c0,3.421,1.706,5.915,4.664,6.717a9.559,9.559,0,0,0,2.457.275q14.029.028,28.058.012c.365,0,.731-.01,1.094.023a2.024,2.024,0,0,1,1.922,2.028,2.086,2.086,0,0,1-1.8,2.155,6.865,6.865,0,0,1-.993.03c-9.485,0-18.972-.07-28.456.026A10.75,10.75,0,0,1,.151,80.4c-.011-.086-.1-.162-.151-.243V21.934a3.81,3.81,0,0,0,.193-.539,10.661,10.661,0,0,1,10.364-8.625c2.11-.025,4.221-.005,6.409-.005,0-.58,0-1.038,0-1.5.01-2.037.712-2.737,2.763-2.742,1.953,0,3.905,0,5.892,0,.095-.294.179-.542.256-.791a10.517,10.517,0,0,1,6.406-7C33.041.425,33.846.24,34.629,0ZM21.245,12.762c0,1.972,0,3.825,0,5.678,0,2.177.673,2.846,2.862,2.846q9.744,0,19.488,0c1.657,0,3.315.018,4.972-.007,1.249-.019,2.227-.607,2.282-1.649.118-2.268.036-4.546.036-6.868-2.068,0-4.054.011-6.04,0a2.176,2.176,0,0,1-2.409-2.214A10.808,10.808,0,0,0,42.3,9.26a6.362,6.362,0,0,0-12.571,1.05c-.192,1.852-.835,2.447-2.664,2.451-1.886,0-3.771,0-5.816,0" transform="translate(10792 4606)" fill="#ff0001"/>
    <path id="Path_44935" data-name="Path 44935" d="M183.611,235.879c-1.522-.879-1.756-1.382-1.4-3.173.931-4.719,1.856-9.44,2.833-14.15a3.227,3.227,0,0,1,.83-1.533q16.327-16.414,32.7-32.782a6.3,6.3,0,0,1,9.239.021c1.9,1.858,3.764,3.747,5.629,5.636a6.382,6.382,0,0,1-.034,9.545q-11.453,11.5-22.928,22.979c-3.142,3.148-6.264,6.316-9.446,9.423a4.185,4.185,0,0,1-1.947,1.051c-4.566.975-9.149,1.866-13.725,2.79a4.132,4.132,0,0,0-.553.194Zm3.271-4.842c3.636-.733,7.045-1.4,10.443-2.124a2.831,2.831,0,0,0,1.351-.706q15.845-15.827,31.652-31.692c1.322-1.325,1.311-2.406-.027-3.758q-2.592-2.617-5.2-5.214c-1.385-1.38-2.448-1.381-3.82-.007q-15.788,15.814-31.557,31.646a3.178,3.178,0,0,0-.746,1.44c-.362,1.48-.639,2.982-.937,4.478-.379,1.908-.744,3.818-1.157,5.936" transform="translate(10658.343 4472.215)" fill="#fff"/>
    <path id="Path_44937" data-name="Path 44937" d="M71.3,128.062H91.592c.365,0,.731-.01,1.093.024a2.1,2.1,0,0,1,1.932,2.043,2.144,2.144,0,0,1-1.745,2.127,4.28,4.28,0,0,1-.793.041q-20.79,0-41.581,0a3.759,3.759,0,0,1-1.17-.153,2.062,2.062,0,0,1-1.4-2.171,2.083,2.083,0,0,1,1.88-1.878,10.7,10.7,0,0,1,1.093-.028H71.3" transform="translate(10756.818 4511.986)" fill="#fff"/>
    <path id="Path_44938" data-name="Path 44938" d="M71.241,176.061H91.633c.332,0,.664-.008.994.018a2.106,2.106,0,0,1,2,2.083,2.137,2.137,0,0,1-1.978,2.12c-.3.029-.6.015-.895.015H50.77a8.358,8.358,0,0,1-.895-.017,2.135,2.135,0,0,1-1.942-2.148,2.093,2.093,0,0,1,2.021-2.055c.33-.024.663-.016.994-.016H71.241" transform="translate(10756.812 4476.749)" fill="#fff"/>
    <path id="Path_44939" data-name="Path 44939" d="M71.294,224.058q10.445,0,20.89,0c1.585,0,2.592,1.009,2.414,2.35a2.106,2.106,0,0,1-1.908,1.864,9.108,9.108,0,0,1-.994.018H50.811c-.2,0-.4,0-.6,0a2.164,2.164,0,0,1-2.285-2.12,2.1,2.1,0,0,1,2.276-2.106c4.808-.018,9.616-.009,14.424-.009h6.665" transform="translate(10756.814 4441.514)" fill="#fff"/>
    <rect id="Rectangle_3516" data-name="Rectangle 3516" width="101.674" height="101.674" transform="translate(10792.21 4606.21)" fill="none"/>
  </g>
</svg>
