<svg xmlns="http://www.w3.org/2000/svg" width="92.991" height="92.991" viewBox="0 0 92.991 92.991">
  <g id="Group_145371" data-name="Group 145371" transform="translate(-10376.206 -4617.188)">
    <path id="Path_44927" data-name="Path 44927" d="M93.594,21.176c-.6,2.4-1.217,4.787-1.8,7.186-1.257,5.135-2.32,10.327-3.8,15.4-1.449,4.971-5.11,7.687-10.181,8.264-9.659,1.1-19.333,2.059-29,3.071-4.895.512-9.786,1.058-14.689,1.481A2.137,2.137,0,0,0,32.1,58.2a5.892,5.892,0,0,0,1.978,7.328,6.046,6.046,0,0,0,3.619.931q20.075-.01,40.15,0a7.7,7.7,0,0,1,1.438.118,2.019,2.019,0,0,1,1.659,1.985,2.05,2.05,0,0,1-1.53,2.1,5.1,5.1,0,0,1-1.256.115q-20.3.008-40.6,0a10.1,10.1,0,0,1-9.386-14.421,5.017,5.017,0,0,0,.2-3.943C24.032,39.5,19.775,26.555,15.491,13.623A5.63,5.63,0,0,0,9.549,9.31C7.465,9.3,5.38,9.336,3.3,9.3,1.479,9.268.454,8.025.925,6.508a1.763,1.763,0,0,1,1.591-1.42,65.508,65.508,0,0,1,9.75.259c3.642.548,5.982,3.074,7.205,6.554.551,1.567,1.088,3.142,1.546,4.737a1.141,1.141,0,0,0,1.3.989q16.947.2,33.892.462,17.309.246,34.617.484a3.012,3.012,0,0,1,2.77,1.513ZM88.731,22.89,22.8,21.92c.089.325.146.584.228.834q4.739,14.419,9.47,28.841a.8.8,0,0,0,1.026.67c2.85-.325,5.7-.607,8.557-.9L77.217,47.72a7.343,7.343,0,0,0,6.965-6.062q1.352-5.5,2.684-11.008c.618-2.547,1.226-5.1,1.866-7.76" transform="translate(10375.604 4613.448)" fill="#ff0001"/>
    <path id="Path_44928" data-name="Path 44928" d="M87.819,300.491a9.705,9.705,0,0,1,.042-19.411,9.705,9.705,0,0,1-.042,19.411m.02-4.325a5.378,5.378,0,1,0-5.355-5.347,5.389,5.389,0,0,0,5.355,5.347" transform="translate(10318.154 4408.43)" fill="#fff"/>
    <path id="Path_44929" data-name="Path 44929" d="M256.527,290.8a9.672,9.672,0,1,1-9.678-9.713,9.677,9.677,0,0,1,9.678,9.713m-9.654,5.37a5.377,5.377,0,1,0-5.4-5.325,5.4,5.4,0,0,0,5.4,5.325" transform="translate(10200.05 4408.427)" fill="#fff"/>
    <rect id="Rectangle_3515" data-name="Rectangle 3515" width="92.991" height="92.991" transform="translate(10376.206 4617.188)" fill="none"/>
  </g>
</svg>
